<svg enable-background="new 0 0 425.2 425.2" viewBox="0 0 425.2 425.2" xmlns="http://www.w3.org/2000/svg"><path d="m407.8 209.8v197.8h-390.8v-197.8h41.6v38.9h68.7v-28.6-10.3h170.1v38.9h68.7v-38.9z" fill="#fff"/><path d="m407.8 89.1v103.1h-41.7v-42.7h-68.7v42.7h-170.1v-1.9-40.8h-68.7v42.7h-41.6v-103.1z" fill="#fff"/><path d="m366.1 209.8v38.9h-68.7v-38.9-17.6-42.7h68.7v42.7zm-16.3 21.3v-64h-35.2v64z" fill="#22c4f3"/><path d="m314.6 167.1h35.2v64h-35.2z" fill="#fff"/><path d="m127.3 192.2h170.1v17.6h-170.1z" fill="#274566"/><path d="m297.4 71.5v-37.1c.2-7.6-4.6-14-11.3-16.5-.5-.2-1.1-.4-1.6-.5-1.1-.3-2.2-.5-3.4-.6-.2 0-.5 0-.7 0-.1 0-.1 0-.2 0h-147.3c-.1 0-.3 0-.4 0-.2 0-.4 0-.7 0-1.2.1-2.3.3-3.4.6-.3.1-.7.2-1 .3-.2.1-.4.1-.6.2s-.4.2-.7.3c-6.4 2.6-10.8 8.9-10.6 16.2v37.1h.2 181.5zm127.8 0v353.7h-425.2v-353.7h99.4v-37.1c0-19.6 15.5-34.4 33.5-34.4h147.3c19.1 0 33.5 15.9 33.5 34.4v37.1zm-17.4 336.1v-197.8h-41.7v-17.6h41.7v-103.1h-390.8v103.1h41.7v17.6h-41.7v197.8z" fill="#274566"/><path d="m297.2 34.4v37.1h-181.5v-37.1c0-7.3 4.2-13.5 10.4-16.2.2-.1.4-.2.7-.3.2-.1.4-.1.6-.2.3-.1.7-.2 1-.3 1.1-.3 2.2-.5 3.4-.6h.7.4 147.3.2.7c1.2.1 2.3.3 3.4.6.6.1 1.1.3 1.6.5 6.6 2.5 11.1 9 11.1 16.5z" fill="#fff"/><g fill="#274566"><path d="m297.2 34.4c0-7.5-4.5-14-11-16.5 6.7 2.5 11.4 8.9 11.3 16.5v37.1h-.2v-37.1z"/><path d="m132.5 16.8c-.2 0-.4 0-.7 0z"/><path d="m131.8 16.8c-1.2.1-2.3.3-3.4.6 1.1-.3 2.2-.5 3.4-.6z"/><path d="m127.4 17.7c-.2.1-.4.1-.6.2.2-.1.4-.2.6-.2z"/></g><path d="m127.3 190.3v1.9 17.6 10.3 28.6h-68.7v-38.9-17.6-42.7h68.7zm-16.3 40.8v-64h-35.2v64z" fill="#22c4f3"/><path d="m75.8 167.1h35.2v64h-35.2z" fill="#fff"/></svg>