<svg viewBox="0 0 383.31 383.18" xmlns="http://www.w3.org/2000/svg"><g fill="none" stroke-linecap="round" stroke-linejoin="round" stroke-width="9"><path d="m377.09 311.29a28.42 28.42 0 0 0 -14.09-21.05l-91.38-52.61a28.68 28.68 0 0 0 -34.52 4.57l-18 18a13.19 13.19 0 0 1 -17.62 1 520.9 520.9 0 0 1 -41.52-37.35 520.06 520.06 0 0 1 -37.35-41.52 13.19 13.19 0 0 1 1-17.62l18-18a28.67 28.67 0 0 0 4.57-34.52l-52.65-91.41a28.63 28.63 0 0 0 -45.05-6l-27.12 27.16c-18.93 18.93-19.24 53.56-.86 97.5 17.67 42.25 50.65 88.77 92.85 131s88.72 75.18 131 92.85c21.63 9 41 13.57 57.36 13.56 16.87 0 30.53-4.81 40.14-14.42l27.12-27.12a28.43 28.43 0 0 0 8.14-24z" stroke="#284566"/><g stroke="#23c4f3"><path d="m268.72 258.12 80.14 46.14a14.57 14.57 0 0 1 4.45 21.3l-106.5-60.79 4.33-4.32a14.61 14.61 0 0 1 17.58-2.33z"/><path d="m67.68 29.8a14.47 14.47 0 0 1 10.72 7.2l46.14 80.14a14.6 14.6 0 0 1 -2.32 17.59l-4 4-61.09-106.2a14.43 14.43 0 0 1 10.55-2.73z"/></g></g></svg>