<svg enable-background="new 98.7 136.7 100.8 100.8" viewBox="98.7 136.7 100.8 100.8" xmlns="http://www.w3.org/2000/svg"><path d="m101.1 153.9h81.9v80.7h-81.9z" fill="#fff"/><path d="m198.8 137.4c.9.9.9 2.5 0 3.4l-65.9 65.9c-.9.9-2.5.9-3.4 0l-17.6-17.7c-1-.9-1-2.5 0-3.4.9-.9 2.5-.9 3.4 0l15.9 15.9 64.1-64.1c1-1 2.5-.9 3.5 0z" fill="#33beed"/><path d="m184.7 172v63c0 1.3-1.1 2.4-2.4 2.4h-81.1c-1.3 0-2.4-1.1-2.4-2.4v-81.1c0-1.3 1.1-2.4 2.4-2.4h61.7c1.3 0 2.4 1.1 2.4 2.4s-1.1 2.4-2.4 2.4h-59.3v76.3h76.3v-60.6c0-1.3 1.1-2.4 2.4-2.4s2.4 1.1 2.4 2.4z" fill="#284566"/></svg>