<svg viewBox="0 0 512 347" xmlns="http://www.w3.org/2000/svg"><path d="m512 46.81a41.93 41.93 0 0 0 -11.2-28.36c-.11-.15-.14-.33-.26-.48s-.27-.19-.4-.31a43 43 0 0 0 -31.14-13.37h-426a43.06 43.06 0 0 0 -31.14 13.38c-.11.12-.28.18-.4.32s-.15.33-.26.48a41.94 41.94 0 0 0 -11.2 28.34v250.6a42 42 0 0 0 11.68 28.92c.14.16.19.35.34.5s.11.06.17.11a43.07 43.07 0 0 0 30.84 13h425.97a43.07 43.07 0 0 0 30.84-13c.05 0 .11-.06.17-.11s.19-.34.34-.49a42 42 0 0 0 11.65-28.93zm-167.59 112.06 147.59-122.34a24.52 24.52 0 0 1 2.3 10.28v250.6a24.61 24.61 0 0 1 -1.88 9.38zm124.59-137.05a25.33 25.33 0 0 1 10.41 2.28l-223.41 185.2-223.38-185.21a25.34 25.34 0 0 1 10.38-2.27zm-449.35 285a24.57 24.57 0 0 1 -1.88-9.38v-250.63a24.51 24.51 0 0 1 2.23-10.28l147.59 122.34zm23.35 15.57a25.25 25.25 0 0 1 -11.34-2.77l149.56-149.46 69.09 57.28a8.91 8.91 0 0 0 11.39 0l69.09-57.28 149.51 149.46a25.24 25.24 0 0 1 -11.3 2.77z" fill="#254060" opacity=".6"/></svg>