<svg enable-background="new 271 -70.9 652 566.9" viewBox="271 -70.9 652 566.9" xmlns="http://www.w3.org/2000/svg"><path d="m921.3 124.9c0-13.9-5.5-26.4-14.2-36-.2-.2-.2-.5-.3-.6-.2-.2-.3-.3-.5-.5-9.9-10.4-24-16.9-39.5-16.9h-539.6c-15.6 0-29.6 6.6-39.5 16.9-.2.2-.3.2-.5.5-.2.2-.2.5-.3.6-8.7 9.6-14.2 22.1-14.2 35.9v317.5c0 14.2 5.6 27 14.8 36.6.2.2.3.5.5.6l.2.2c9.9 10.1 23.8 16.5 39.1 16.5h539.6c15.4 0 29.1-6.4 39.1-16.5l.2-.2c.2-.2.3-.5.5-.6 9.2-9.6 14.8-22.4 14.8-36.6v-317.4zm-212.2 142 186.9-155c1.8 4 2.9 8.4 2.9 13v317.5c0 4.3-.9 8.2-2.4 11.9zm157.7-173.6c4.7 0 9.2 1.1 13.1 2.9l-282.9 234.6-283-234.6c4-1.8 8.5-2.9 13.1-2.9zm-569.3 361c-1.5-3.7-2.4-7.6-2.4-11.9v-317.5c0-4.6 1.1-9 2.9-13l186.9 155zm29.7 19.8c-5.2 0-10.1-1.4-14.3-3.5l189.3-189.3 87.6 72.6c2.1 1.7 4.6 2.6 7.2 2.6s5.2-.9 7.2-2.6l87.6-72.6 189.5 189.3c-4.3 2.1-9.2 3.5-14.3 3.5z" fill="#fff"/></svg>