<svg enable-background="new 0 0 232.9 50.24" viewBox="0 0 232.9 50.24" xmlns="http://www.w3.org/2000/svg"><g fill="#fff" transform="translate(-80.94 -541.99)"><path d="m98.78 543.73c-4.75.21-5.67.92-5.67 6v34.73c0 5.09.92 5.81 5.67 6v1.4c-2.15-.14-5.67-.21-8.89-.21-3.62 0-7 .07-9 .21v-1.4c4.75-.21 5.67-.92 5.67-6v-34.71c0-5.09-.92-5.81-5.67-6v-1.4c1.95.14 5.33.21 9 .21 3.21 0 6.73-.07 8.89-.21z"/><path d="m148.62 543.73c-4.75.21-5.67 1.61-5.67 6.73v41.77h-1.61l-29.39-45.42v36.95c0 5.13.92 6.53 6.36 6.73v1.4c-1.67-.14-4.75-.21-7.14-.21s-5 .07-6.49.21v-1.4c4.75-.21 5.67-1.61 5.67-6.73v-34c0-5.09-.92-5.81-5.67-6v-1.4c1.54.14 4.14.21 6.49.21 2.05 0 3.93-.07 5.47-.21l24.71 38.08v-29.97c0-5.13-.89-6.53-6.36-6.73v-1.4c1.67.14 4.75.21 7.14.21s5-.07 6.49-.21z"/><path d="m189.36 543.73c-4.75.21-5.67.92-5.67 6v34.73c0 5.09.92 5.81 5.67 5.81h5.13c8.75 0 10.49-3.35 11.48-13.09h1.61c-.14 1.47-.21 3.49-.21 5.74 0 1.74.14 5.4.48 9-4.75-.21-11.35-.21-16-.21-4.2 0-13.43 0-20.3.21v-1.4c4.75-.21 5.67-.92 5.67-6v-34.77c0-5.09-.92-5.81-5.67-6v-1.4c1.95.14 5.33.21 9 .21 3.21 0 6.73-.07 8.89-.21z"/><path d="m249.41 586c1.4 3.55 3.38 4.41 4.85 4.48v1.4c-1.91-.14-4.85-.21-7.52-.21-3.62 0-7 .07-9 .21v-1.4c3.38-.14 5-.65 5-2.6a9.63 9.63 0 0 0 -.82-3.28l-4.31-11.48h-16.88l-2.87 7.42a16.52 16.52 0 0 0 -1.4 5.74c0 3 2.08 4.1 6.08 4.2v1.4c-2.67-.14-5.61-.21-8.07-.21a51.5 51.5 0 0 0 -5.23.21v-1.4c1.81-.41 3.9-1.88 5.5-6.08l16.49-42.4h1.13zm-20.13-35.17-8 20.88h15.86z"/><path d="m313.84 542.33v1.4c-1.85.41-4.2 1.81-5.54 6.08l-13.23 42.42h-1.13l-12.17-36.06-11.14 36.06h-1.13l-14.83-44c-1.26-3.62-3.35-4.41-4.82-4.48v-1.4c1.88.14 4.82.21 7.49.21 3.08 0 5.88-.07 7.55-.21v1.4c-2.43.17-3.42.82-3.42 2.43a12.15 12.15 0 0 0 .75 3.45l10.25 31.21 8.48-27.1-1.85-5.5c-1.2-3.62-2.87-4.41-4.14-4.48v-1.4c1.67.14 4.41.21 6.8.21 3.62 0 7-.07 9-.21v1.4c-3.11.14-4.79.34-4.79 2.5a11.73 11.73 0 0 0 .72 3.38l10 31.14 8.65-27.07a19.55 19.55 0 0 0 1.13-5.64c0-3.18-1.91-4.2-6-4.31v-1.4c2.67.14 5.61.21 8.07.21a51.79 51.79 0 0 0 5.3-.24z"/></g></svg>