<svg enable-background="new 0 0 54.757 54.757" viewBox="0 0 54.757 54.757" xmlns="http://www.w3.org/2000/svg"><g fill="#fff"><path d="m27.557 12c-3.859 0-7 3.141-7 7s3.141 7 7 7 7-3.141 7-7-3.141-7-7-7zm0 12c-2.757 0-5-2.243-5-5s2.243-5 5-5 5 2.243 5 5-2.243 5-5 5z"/><path d="m40.94 5.617c-3.622-3.622-8.438-5.617-13.56-5.617-5.123 0-9.938 1.995-13.56 5.617-6.703 6.702-7.536 19.312-1.804 26.952l15.364 22.188 15.341-22.157c5.755-7.671 4.922-20.281-1.781-26.983zm.159 25.814-13.719 19.812-13.741-19.843c-5.199-6.932-4.454-18.32 1.596-24.369 3.244-3.244 7.557-5.031 12.145-5.031s8.901 1.787 12.146 5.031c6.05 6.049 6.795 17.437 1.573 24.4z"/></g></svg>