<svg enable-background="new 0 0 381.7 103.1" viewBox="0 0 381.7 103.1" xmlns="http://www.w3.org/2000/svg"><g fill="#fff"><path d="m4 45.1c-.1.3-.1.7-.2 1l-.5-1.7c.2.2.5.4.7.7z"/><path d="m56.1-.9c.3 2 .6 4 1 5.9.3 2 .7 3.9 1.1 5.9s.7 3.9 1.1 5.9.8 3.9 1.2 5.9l1.2 5.9c.4 2 .8 3.9 1.3 5.9l1.3 5.8c.4 1.6 1.2 5.2 1.1 4.8-.7.8-1.4 1.5-2.1 2.3-.9 1-1.8 2-2.7 3s-1.7 2.1-2.6 3.1c-.8 1.1-1.7 2.1-2.5 3.2s-1.6 2.2-2.4 3.3-1.5 2.2-2.2 3.4c-.7 1.1-1.4 2.3-2.1 3.4-.7 1.2-1.4 2.3-2 3.5s-1.3 2.4-1.9 3.6-1.2 2.4-1.7 3.7c-.6 1.2-1.1 2.5-1.6 3.7-.3.6-.5 1.3-.7 1.9s-.5 1.3-.7 1.9l-.6 1.9-.6 2c-.2.6-.4 1.3-.5 1.9-.2.7-.3 1.3-.5 2-.3 1.3-.6 2.6-.7 4-.2 1.3-.3 2.7-.5 4 0 .1-.1.2-.1.3s-.1.2-.2.4-.3.5-.5.7-.4.4-.7.5c-.1.1-.2.1-.4.2h-.1.3 49.5v-103.9z"/><path d="m34.7 36.8c-2.1 0-3.8 1.7-3.8 3.8 0 1.4.8 2.7 2 3.3l1.8 59 1.8-59c1.2-.6 2-1.9 2-3.3 0-2.1-1.7-3.8-3.8-3.8z"/><path d="m34.4 103.1h-.3c-.1 0-.2-.1-.3-.1-.3-.1-.5-.3-.8-.5-.2-.2-.5-.4-.7-.7-.1-.1-.2-.2-.3-.4-.1-.1-.2-.3-.2-.4-.3-1.3-.6-2.6-1-3.9-.2-.6-.3-1.3-.6-1.9l-.6-1.9c-.4-1.2-.9-2.5-1.3-3.7l-.7-1.8-.6-1.8c-.5-1.2-1.1-2.4-1.6-3.6-.6-1.2-1.1-2.4-1.8-3.5-.6-1.2-1.2-2.3-1.9-3.5-.7-1.1-1.3-2.3-2-3.4s-1.4-2.2-2.1-3.3-1.4-2.2-2.2-3.3-1.5-2.2-2.3-3.2c-.8-1.1-1.5-2.1-2.3-3.2-.8-1-1.6-2.1-2.4-3.1s-1.7-2.1-2.5-3.1-1.7-2-2.6-3-1.8-2-2.6-2.9l-.7-.7.2-1c.5-1.9 1-3.9 1.5-5.8l1.5-5.8c.5-1.9 1-3.9 1.6-5.8l1.6-5.8c.5-1.9 1.1-3.8 1.7-5.8.5-1.9 1.1-3.8 1.7-5.7s1.2-3.8 1.8-5.7 1.2-3.8 1.9-5.7c-.3 2-.6 4-1 5.9-.5 2-.9 4-1.2 5.9-.4 2-.7 3.9-1.1 5.9s-.8 3.9-1.2 5.9l-1.2 5.9c-.4 2-.8 3.9-1.3 5.8l-1.3 5.8c-.4 1.6-1.2 5.2-1.1 4.8.7.8 1.4 1.5 2.1 2.3l2.7 3c.9 1 1.7 2.1 2.6 3.1.8 1.1 1.7 2.1 2.5 3.2s1.6 2.2 2.3 3.3c.8 1.1 1.5 2.2 2.2 3.4.7 1.1 1.4 2.3 2.1 3.5s1.4 2.3 2 3.5 1.3 2.4 1.9 3.6 1.2 2.4 1.7 3.7c.6 1.2 1.1 2.5 1.6 3.7.3.6.5 1.3.7 1.9s.5 1.3.7 1.9l.6 1.9.6 2c.2.6.4 1.3.5 1.9.2.7.3 1.3.5 2 .3 1.3.6 2.6.7 4 .2 1.3.3 2.7.5 4 0 .1.1.2.1.3s.1.2.2.4.3.5.5.7.4.4.7.5c-.1.1.1.2.3.3-.1-.1 0-.1 0 0z"/><path d="m115.9 55.2v-1.6c1.9-.1 3.2-.3 4.1-.6.8-.3 1.4-.9 1.8-1.8s.5-2.3.5-4.3v-38.6c0-2-.2-3.4-.5-4.3s-.9-1.5-1.8-1.8c-.8-.3-2.2-.5-4.1-.6v-1.6c2.2.2 5.5.2 10 .2 4.2 0 7.5-.1 9.9-.2v1.6c-1.9.1-3.2.3-4.1.6-.8.3-1.4.9-1.8 1.8-.3.9-.5 2.3-.5 4.3v38.7c0 2 .2 3.4.5 4.3s.9 1.5 1.8 1.8c.8.3 2.2.5 4.1.6v1.6c-2.4-.2-5.7-.2-9.9-.2-4.5-.1-7.8 0-10 .1z"/><path d="m143.9 55.2v-1.6c2.6-.1 4.3-.7 5.1-1.7s1.2-3 1.2-5.8v-37.8c0-2-.2-3.4-.5-4.3s-.9-1.5-1.8-1.8c-.8-.3-2.2-.5-4.1-.6v-1.6c1.7.2 4.1.2 7.2.2 2.4 0 4.4-.1 6.1-.2l27.5 42.4v-33.3c0-1.5-.1-2.7-.2-3.6-.2-.9-.5-1.6-1-2.2s-1.2-1-2.1-1.3c-.9-.2-2.1-.4-3.7-.4v-1.6c1.9.2 4.5.2 8 .2 3.1 0 5.5-.1 7.2-.2v1.6c-2.6.1-4.3.7-5.1 1.7s-1.2 3-1.2 5.8v46.5h-1.8l-32.7-50.6v41.2c0 2.9.4 4.9 1.3 5.9s2.8 1.5 5.8 1.6v1.6c-1.9-.2-4.5-.2-8-.2-3.1-.1-5.5 0-7.2.1z"/><path d="m221.5 55.2v-1.6c1.9-.1 3.2-.3 4.1-.6.8-.3 1.4-.9 1.8-1.8s.5-2.3.5-4.3v-38.6c0-2-.2-3.4-.5-4.3s-.9-1.5-1.8-1.8c-.8-.3-2.2-.5-4.1-.6v-1.6c2.2.2 5.5.2 10 .2 4.2 0 7.5-.1 9.9-.2v1.6c-1.9.1-3.2.3-4.1.6-.8.3-1.4.9-1.8 1.8-.3.9-.5 2.3-.5 4.3v38.7c0 2.8.4 4.6 1.1 5.3s2.5 1.1 5.2 1.1h5.7c2.5 0 4.5-.2 6-.7s2.7-1.3 3.7-2.6 1.6-2.7 2.1-4.4c.4-1.7.8-4 1.1-6.9h1.8c-.2 1.6-.2 3.8-.2 6.4 0 2.9.2 6.3.5 10-3.5-.2-9.5-.2-17.9-.2-9.9 0-17.5.1-22.6.2z"/><path d="m265.1 55.2v-1.6c2.6-.6 4.6-2.8 6.1-6.8l18.4-47.3h1.3l19 49.1c1.3 3.2 3.1 4.9 5.4 5v1.6c-2.1-.2-4.9-.2-8.4-.2-4.4 0-7.8.1-10 .2v-1.6c2-.1 3.4-.3 4.2-.7s1.3-1.1 1.3-2.2c0-.9-.3-2.1-.9-3.7l-4.8-12.8h-18.8l-3.2 8.3c-1 2.6-1.6 4.8-1.6 6.4 0 1.7.6 2.8 1.7 3.5s2.8 1.1 5.1 1.1v1.6c-3-.2-6-.2-9-.2-2.3.1-4.2.2-5.8.3zm13.4-22.4h17.7l-8.7-23.3z"/><path d="m310.4 1.6v-1.6c2.1.2 4.9.2 8.3.2 3.7 0 6.5-.1 8.4-.2v1.6c-1.4.1-2.3.4-2.9.8s-.9 1.1-.9 1.9.3 2.1.8 3.8l11.5 34.8 9.4-30.2-2-6.1c-1.1-3.2-2.6-4.9-4.6-5v-1.6c1.9.2 4.4.2 7.6.2 4.4 0 7.8-.1 10-.2v1.6c-1 .1-1.8.1-2.3.2s-1.1.2-1.6.4-.9.5-1.1.8c-.2.4-.3.8-.3 1.4 0 .9.3 2.1.8 3.8l11.2 34.7 9.6-30.2c.8-2.6 1.2-4.7 1.2-6.3 0-1.7-.5-2.9-1.6-3.7-1.1-.7-2.7-1.1-5.1-1.1v-1.6c3 .2 6 .2 9 .2 2.3 0 4.3-.1 5.9-.2v1.6c-2.9.6-5 2.9-6.2 6.8l-14.7 47.3h-.6-.6l-13.6-40.2-12.4 40.2h-.6-.6l-16.7-49.1c-1.1-3.2-2.9-4.9-5.3-5z"/><path d="m131 91.9c0 2.2-.5 3.8-1.5 4.9s-2.4 1.7-4.1 1.7-3.1-.6-4-1.7c-1-1.1-1.5-2.8-1.5-5v-1.7h-2.5v8.1h-1.5v-17.7h1.5v8.4h2.5v-2c0-2.2.5-3.8 1.5-4.9s2.3-1.7 4-1.7 3.1.6 4.1 1.7 1.5 2.8 1.5 4.9zm-1.4-5.1c0-1.8-.4-3.1-1.1-4s-1.8-1.3-3.1-1.3-2.3.4-3 1.3-1 2.2-1 4v5c0 1.8.3 3.1 1 4s1.7 1.3 3 1.3c1.4 0 2.4-.4 3.1-1.3s1.1-2.2 1.1-4z"/><path d="m139.4 90.9v7.4h-1.5v-17.8h5.3c1.6 0 2.8.5 3.6 1.4s1.3 2.2 1.3 3.8-.4 2.8-1.3 3.8-2.1 1.4-3.6 1.4zm0-1.3h3.8c1.1 0 2-.4 2.6-1.1s.9-1.7.9-2.8-.3-2.1-.9-2.8-1.4-1.1-2.6-1.1h-3.8z"/><path d="m163.8 80.5h1.5v17.8h-1.5v-14.8h-.1l-7.9 14.8h-1.5v-17.8h1.5v14.8h.1z"/><path d="m183.8 97h1.7l-.1 5.6h-1.4v-4.3h-11v4.3h-1.3l-.2-5.6h1.1c.5-.6 1-1.8 1.6-3.4s.8-3.9.9-6.7l.3-6.4h8.4zm-7.2-10.1c-.1 2.3-.4 4.4-.8 6.1s-1 3.1-1.6 4h8.1v-15.2h-5.5z"/><path d="m201 80.5h1.5v17.8h-1.5v-14.8h-.1l-7.9 14.7h-1.5v-17.7h1.5v14.8h.1z"/><path d="m219.5 80.5v17.8h-1.5v-8c-.7.2-1.4.4-2 .5s-1.3.2-2 .2c-1.6 0-2.8-.4-3.7-1.3s-1.2-2.2-1.2-4.2v-5h1.5v5c0 1.5.3 2.6.8 3.2s1.4 1 2.6 1c.7 0 1.4-.1 2-.2.7-.1 1.3-.3 2-.5v-8.4h1.5z"/><path d="m235.2 89.6h-7v7.4h8v1.2h-9.5v-17.7h9.4v1.3h-7.9v6.6h7z"/><path d="m251.9 93.1c0 1.8-.4 3.1-1.3 4s-2.1 1.4-3.7 1.4-2.9-.6-3.9-1.7c-1-1.2-1.4-2.8-1.4-4.9v-4.9c0-2.1.5-3.8 1.4-4.9 1-1.2 2.3-1.8 3.9-1.8s2.8.4 3.7 1.3 1.3 2.2 1.4 4v.1h-1.4c0-1.4-.4-2.4-1-3.1s-1.5-1-2.7-1-2.2.5-2.9 1.4-1 2.2-1 4v5c0 1.8.3 3.1 1 4s1.6 1.4 2.9 1.4c1.2 0 2.1-.3 2.7-1s.9-1.7 1-3.2h1.3z"/><path d="m261.8 89.9h-1.9v8.4h-1.5v-17.8h1.5v8.2h1.9l5.6-8.2h1.7l-6.1 8.7 6.5 9.1h-1.8z"/><path d="m285.2 91.9c0 2.2-.5 3.8-1.5 4.9s-2.4 1.7-4.1 1.7-3.1-.6-4-1.7c-1-1.1-1.5-2.8-1.5-4.9v-5c0-2.2.5-3.8 1.5-4.9s2.3-1.7 4-1.7c1.8 0 3.1.6 4.1 1.7s1.5 2.8 1.5 4.9zm-1.4-5.1c0-1.8-.4-3.1-1.1-4s-1.8-1.3-3.1-1.3-2.3.4-3 1.3-1 2.2-1 4v5c0 1.8.3 3.1 1 4s1.7 1.3 3 1.3c1.4 0 2.4-.4 3.1-1.3s1.1-2.2 1.1-4z"/><path d="m300.2 89.6h-7v7.4h8v1.2h-9.5v-17.7h9.4v1.3h-7.9v6.6h7z"/><path d="m324.6 81.8h-7.5v6.4h3.7c1.6 0 2.8.5 3.6 1.4.9.9 1.3 2.1 1.3 3.6s-.4 2.8-1.3 3.7-2.1 1.4-3.6 1.4h-5.1v-17.8h8.9zm-7.5 7.7v7.5h3.7c1.1 0 2-.4 2.6-1.1s.8-1.6.8-2.7-.3-1.9-.8-2.7-1.4-1.1-2.6-1.1h-3.7z"/><path d="m347.6 91.9c0 2.2-.5 3.8-1.5 4.9s-2.4 1.7-4.1 1.7-3.1-.6-4-1.7c-1-1.1-1.5-2.8-1.5-5v-1.7h-2.5v8.1h-1.5v-17.7h1.5v8.4h2.5v-2c0-2.2.5-3.8 1.5-4.9s2.3-1.7 4-1.7 3.1.6 4.1 1.7 1.5 2.8 1.5 4.9zm-1.5-5.1c0-1.8-.4-3.1-1.1-4s-1.8-1.3-3.1-1.3-2.3.4-3 1.3-1 2.2-1 4v5c0 1.8.3 3.1 1 4s1.7 1.3 3 1.3c1.4 0 2.4-.4 3.1-1.3s1.1-2.2 1.1-4z"/><path d="m356 90.9v7.4h-1.5v-17.8h5.3c1.6 0 2.8.5 3.6 1.4.9 1 1.3 2.2 1.3 3.8s-.4 2.8-1.3 3.8c-.9.9-2.1 1.4-3.6 1.4zm0-1.3h3.8c1.1 0 2-.4 2.6-1.1s.9-1.7.9-2.8-.3-2.1-.9-2.8-1.4-1.1-2.6-1.1h-3.8z"/><path d="m381.4 91.9c0 2.2-.5 3.8-1.5 4.9s-2.4 1.7-4.1 1.7-3.1-.6-4-1.7c-1-1.1-1.5-2.8-1.5-4.9v-5c0-2.2.5-3.8 1.5-4.9s2.3-1.7 4-1.7c1.8 0 3.1.6 4.1 1.7s1.5 2.8 1.5 4.9zm-1.5-5.1c0-1.8-.4-3.1-1.1-4s-1.8-1.3-3.1-1.3-2.3.4-3 1.3-1 2.2-1 4v5c0 1.8.3 3.1 1 4s1.7 1.3 3 1.3c1.4 0 2.4-.4 3.1-1.3s1.1-2.2 1.1-4z"/></g></svg>