<svg enable-background="new 354.3 0 425.2 425.2" viewBox="354.3 0 425.2 425.2" xmlns="http://www.w3.org/2000/svg"><path d="m766.3 43.1c17.6 17.6 17.6 56-.1 102.9-19.4 51.5-57.8 107.6-108.1 157.8-50.3 50.3-106.3 88.6-157.8 108.1-23.5 8.9-44.9 13.3-62.6 13.3s-31.6-4.4-40.3-13.1c-2.5-2.5-5.2-5.1-8-7.7-16.9-16-36.1-34.2-35.1-58.3.7-16.6 11-32.6 31.4-49.1 60.4-48.6 81.9-26.7 106.9-1.4l4.5 4.5c7.5 7.5 25.7-2.5 36-9.2 16.2-10.5 36.5-28 60.3-51.8 72.9-72.9 65.1-92.1 61-96.3l-4.5-4.4c-25.4-25-47.3-46.5 1.3-107 16.5-20.4 32.5-30.7 49.1-31.4 24.1-.8 42.2 18.1 58.3 35 2.6 2.9 5.2 5.6 7.7 8.1zm-13.4 97.9c15.2-40.2 16.5-74.6 3.4-87.7-2.6-2.6-5.3-5.4-8-8.3-13.7-14.4-29.1-30.6-46.2-30.6-.4 0-.8 0-1.2 0-12.1.5-25 9.3-38.6 26.1-40.5 50.4-26.2 64.4-2.4 87.8l4.6 4.5c18.9 19-.4 56-60.9 116.5-24.5 24.5-45.6 42.5-62.6 53.6-24.6 16-42.7 18.5-53.9 7.3l-4.6-4.6c-23.3-23.7-37.4-38-87.7 2.5-16.8 13.5-25.6 26.5-26.1 38.6-.7 17.5 15.9 33.4 30.6 47.3 2.9 2.7 5.7 5.4 8.3 8 13.1 13.1 47.5 11.8 87.7-3.4 49.7-18.8 103.9-56 152.7-104.8 48.9-48.9 86.1-103.2 104.9-152.8z" fill="#fff"/></svg>