<svg id="556fb19d-a604-4625-992d-23fff5ca51bf" data-name="Слой 1" xmlns="http://www.w3.org/2000/svg" xmlns:xlink="http://www.w3.org/1999/xlink" viewBox="0 0 209.04 60.36"><defs><linearGradient id="55a0de6d-57f5-4807-ac41-70499bea221b" x1="-18.13" y1="59.55" x2="125.4" y2="-94.36" gradientUnits="userSpaceOnUse"><stop offset="0" stop-color="#274566"/><stop offset="0.13" stop-color="#274d6f"/><stop offset="0.35" stop-color="#266489"/><stop offset="0.63" stop-color="#248ab2"/><stop offset="0.95" stop-color="#22bdeb"/><stop offset="0.99" stop-color="#22c4f3"/></linearGradient><linearGradient id="9cb551b4-c34b-4b99-8452-d2b46206a987" x1="1.57" y1="77.92" x2="145.1" y2="-76" xlink:href="#55a0de6d-57f5-4807-ac41-70499bea221b"/><linearGradient id="638b1690-31e3-4f75-b81f-9653d3fbcfdf" x1="24.91" y1="99.69" x2="168.44" y2="-54.23" xlink:href="#55a0de6d-57f5-4807-ac41-70499bea221b"/><linearGradient id="061b3d1c-677b-4aaf-afbc-02951a4b6ae4" x1="26.19" y1="100.88" x2="169.72" y2="-53.04" xlink:href="#55a0de6d-57f5-4807-ac41-70499bea221b"/><linearGradient id="c127e62e-3f22-4fcf-8590-eded4f100a51" x1="58.32" y1="130.84" x2="201.85" y2="-23.08" xlink:href="#55a0de6d-57f5-4807-ac41-70499bea221b"/><linearGradient id="4957b029-8c54-427f-847e-8ab59859c9e6" x1="74.54" y1="145.96" x2="218.07" y2="-7.95" xlink:href="#55a0de6d-57f5-4807-ac41-70499bea221b"/><linearGradient id="bc9c0837-b109-405d-b971-924d2d5789a4" x1="87.39" y1="157.95" x2="230.92" y2="4.03" xlink:href="#55a0de6d-57f5-4807-ac41-70499bea221b"/></defs><title>цифры</title><path d="M19.52,24.85A12.25,12.25,0,0,0,24,20.3a13.15,13.15,0,0,0,1.65-6.63q0-6.36-3.4-10A11.6,11.6,0,0,0,13.3,0a11.64,11.64,0,0,0-9,3.69Q.93,7.38.92,13.67a13.41,13.41,0,0,0,1.61,6.62,11.75,11.75,0,0,0,4.41,4.52,12.21,12.21,0,0,0-5.08,4.87A14.46,14.46,0,0,0,0,37q0,6.42,3.64,10.27a12.7,12.7,0,0,0,9.66,3.84A12.68,12.68,0,0,0,23,47.29Q26.6,43.44,26.59,37a14.11,14.11,0,0,0-1.88-7.27A12.57,12.57,0,0,0,19.52,24.85ZM8.68,7.55A5.41,5.41,0,0,1,13.3,5.2a5.41,5.41,0,0,1,4.54,2.39,10.06,10.06,0,0,1,1.78,6.18,10.15,10.15,0,0,1-1.71,6.16,5.43,5.43,0,0,1-4.61,2.32A5.46,5.46,0,0,1,8.72,20,9.94,9.94,0,0,1,7,13.77,10.39,10.39,0,0,1,8.68,7.55Zm10,36A6.43,6.43,0,0,1,13.3,46a6.5,6.5,0,0,1-5.39-2.39A10.58,10.58,0,0,1,6,36.88,11.18,11.18,0,0,1,8,30a6.2,6.2,0,0,1,5.28-2.59A6.41,6.41,0,0,1,18.53,30a10.84,10.84,0,0,1,2,6.85A10.58,10.58,0,0,1,18.66,43.58Z"/><path d="M19.52,24.85A12.25,12.25,0,0,0,24,20.3a13.15,13.15,0,0,0,1.65-6.63q0-6.36-3.4-10A11.6,11.6,0,0,0,13.3,0a11.64,11.64,0,0,0-9,3.69Q.93,7.38.92,13.67a13.41,13.41,0,0,0,1.61,6.62,11.75,11.75,0,0,0,4.41,4.52,12.21,12.21,0,0,0-5.08,4.87A14.46,14.46,0,0,0,0,37q0,6.42,3.64,10.27a12.7,12.7,0,0,0,9.66,3.84A12.68,12.68,0,0,0,23,47.29Q26.6,43.44,26.59,37a14.11,14.11,0,0,0-1.88-7.27A12.57,12.57,0,0,0,19.52,24.85ZM8.68,7.55A5.41,5.41,0,0,1,13.3,5.2a5.41,5.41,0,0,1,4.54,2.39,10.06,10.06,0,0,1,1.78,6.18,10.15,10.15,0,0,1-1.71,6.16,5.43,5.43,0,0,1-4.61,2.32A5.46,5.46,0,0,1,8.72,20,9.94,9.94,0,0,1,7,13.77,10.39,10.39,0,0,1,8.68,7.55Zm10,36A6.43,6.43,0,0,1,13.3,46a6.5,6.5,0,0,1-5.39-2.39A10.58,10.58,0,0,1,6,36.88,11.18,11.18,0,0,1,8,30a6.2,6.2,0,0,1,5.28-2.59A6.41,6.41,0,0,1,18.53,30a10.84,10.84,0,0,1,2,6.85A10.58,10.58,0,0,1,18.66,43.58Z" fill="url(#55a0de6d-57f5-4807-ac41-70499bea221b)"/><path d="M49.73,17.81A10.37,10.37,0,0,0,41.25,22Q41.78,14,45.19,10.1A12.23,12.23,0,0,1,54.65,6h1V.65h-1A19.17,19.17,0,0,0,43.87,3.71a18,18,0,0,0-6.55,9Q35.1,18.84,35.1,29.09v2.42q0,8.89,3.69,14.26a11.33,11.33,0,0,0,9.75,5.36,11.56,11.56,0,0,0,9.58-4.54Q61.69,42,61.69,34.21q0-7.34-3.23-11.87A10.17,10.17,0,0,0,49.73,17.81Zm4.1,25a5.92,5.92,0,0,1-5.29,3.12q-3.12,0-5.25-3.81a20,20,0,0,1-2.14-9.86V29.74a10.65,10.65,0,0,1,3-4.79,6.69,6.69,0,0,1,4.55-1.88,5.77,5.77,0,0,1,5.12,3.2,15.84,15.84,0,0,1,1.92,8.25A15.66,15.66,0,0,1,53.83,42.78Z"/><path d="M49.73,17.81A10.37,10.37,0,0,0,41.25,22Q41.78,14,45.19,10.1A12.23,12.23,0,0,1,54.65,6h1V.65h-1A19.17,19.17,0,0,0,43.87,3.71a18,18,0,0,0-6.55,9Q35.1,18.84,35.1,29.09v2.42q0,8.89,3.69,14.26a11.33,11.33,0,0,0,9.75,5.36,11.56,11.56,0,0,0,9.58-4.54Q61.69,42,61.69,34.21q0-7.34-3.23-11.87A10.17,10.17,0,0,0,49.73,17.81Zm4.1,25a5.92,5.92,0,0,1-5.29,3.12q-3.12,0-5.25-3.81a20,20,0,0,1-2.14-9.86V29.74a10.65,10.65,0,0,1,3-4.79,6.69,6.69,0,0,1,4.55-1.88,5.77,5.77,0,0,1,5.12,3.2,15.84,15.84,0,0,1,1.92,8.25A15.66,15.66,0,0,1,53.83,42.78Z" fill="url(#9cb551b4-c34b-4b99-8452-d2b46206a987)"/><path d="M69.49,48.67a16.48,16.48,0,0,1-3.35,9.23l3.59,2.46A16.1,16.1,0,0,0,74,54.82a15.52,15.52,0,0,0,1.69-6.9V43H69.49Z"/><path d="M69.49,48.67a16.48,16.48,0,0,1-3.35,9.23l3.59,2.46A16.1,16.1,0,0,0,74,54.82a15.52,15.52,0,0,0,1.69-6.9V43H69.49Z" fill="url(#638b1690-31e3-4f75-b81f-9653d3fbcfdf)"/><path d="M102.37,24.85a12.18,12.18,0,0,0,4.46-4.55,13.16,13.16,0,0,0,1.66-6.63q0-6.36-3.4-10a12.75,12.75,0,0,0-17.91,0q-3.41,3.69-3.41,10a13.41,13.41,0,0,0,1.61,6.62,11.75,11.75,0,0,0,4.41,4.52,12.27,12.27,0,0,0-5.08,4.87A14.46,14.46,0,0,0,82.85,37q0,6.42,3.64,10.27a12.7,12.7,0,0,0,9.66,3.84,12.66,12.66,0,0,0,9.65-3.84q3.65-3.85,3.64-10.27a14,14,0,0,0-1.88-7.27A12.57,12.57,0,0,0,102.37,24.85ZM91.53,7.55a5.61,5.61,0,0,1,9.16,0,10.06,10.06,0,0,1,1.78,6.18,10.15,10.15,0,0,1-1.71,6.16,5.73,5.73,0,0,1-9.19,0,10,10,0,0,1-1.75-6.19A10.39,10.39,0,0,1,91.53,7.55Zm10,36A6.43,6.43,0,0,1,96.15,46a6.5,6.5,0,0,1-5.39-2.39,10.58,10.58,0,0,1-1.89-6.7A11.18,11.18,0,0,1,90.8,30a6.22,6.22,0,0,1,5.28-2.59,6.41,6.41,0,0,1,5.3,2.58,10.84,10.84,0,0,1,2,6.85A10.58,10.58,0,0,1,101.51,43.58Z"/><path d="M102.37,24.85a12.18,12.18,0,0,0,4.46-4.55,13.16,13.16,0,0,0,1.66-6.63q0-6.36-3.4-10a12.75,12.75,0,0,0-17.91,0q-3.41,3.69-3.41,10a13.41,13.41,0,0,0,1.61,6.62,11.75,11.75,0,0,0,4.41,4.52,12.27,12.27,0,0,0-5.08,4.87A14.46,14.46,0,0,0,82.85,37q0,6.42,3.64,10.27a12.7,12.7,0,0,0,9.66,3.84,12.66,12.66,0,0,0,9.65-3.84q3.65-3.85,3.64-10.27a14,14,0,0,0-1.88-7.27A12.57,12.57,0,0,0,102.37,24.85ZM91.53,7.55a5.61,5.61,0,0,1,9.16,0,10.06,10.06,0,0,1,1.78,6.18,10.15,10.15,0,0,1-1.71,6.16,5.73,5.73,0,0,1-9.19,0,10,10,0,0,1-1.75-6.19A10.39,10.39,0,0,1,91.53,7.55Zm10,36A6.43,6.43,0,0,1,96.15,46a6.5,6.5,0,0,1-5.39-2.39,10.58,10.58,0,0,1-1.89-6.7A11.18,11.18,0,0,1,90.8,30a6.22,6.22,0,0,1,5.28-2.59,6.41,6.41,0,0,1,5.3,2.58,10.84,10.84,0,0,1,2,6.85A10.58,10.58,0,0,1,101.51,43.58Z" fill="url(#061b3d1c-677b-4aaf-afbc-02951a4b6ae4)"/><polygon points="145.66 44.47 138.65 24.03 133.09 24.03 133.09 50.45 137.38 50.45 137.38 31.8 144.19 50.45 147.15 50.45 153.81 32.24 153.81 50.45 158.11 50.45 158.11 24.03 152.74 24.03 145.66 44.47"/><polygon points="145.66 44.47 138.65 24.03 133.09 24.03 133.09 50.45 137.38 50.45 137.38 31.8 144.19 50.45 147.15 50.45 153.81 32.24 153.81 50.45 158.11 50.45 158.11 24.03 152.74 24.03 145.66 44.47" fill="url(#c127e62e-3f22-4fcf-8590-eded4f100a51)"/><path d="M167.8,35.34q-.24,6.42-1,8.6a3.13,3.13,0,0,1-2.55,2.43l-1.1.1v4h1.44a5.71,5.71,0,0,0,5.33-3.16q1.65-3.12,2-10.56l.41-9h7V50.45h4.32V24h-15.4Z"/><path d="M167.8,35.34q-.24,6.42-1,8.6a3.13,3.13,0,0,1-2.55,2.43l-1.1.1v4h1.44a5.71,5.71,0,0,0,5.33-3.16q1.65-3.12,2-10.56l.41-9h7V50.45h4.32V24h-15.4Z" fill="url(#4957b029-8c54-427f-847e-8ab59859c9e6)"/><polygon points="204.74 35.48 195.22 35.48 195.22 24.03 190.87 24.03 190.87 50.45 195.22 50.45 195.22 39.17 204.74 39.17 204.74 50.45 209.04 50.45 209.04 24.03 204.74 24.03 204.74 35.48"/><polygon points="204.74 35.48 195.22 35.48 195.22 24.03 190.87 24.03 190.87 50.45 195.22 50.45 195.22 39.17 204.74 39.17 204.74 50.45 209.04 50.45 209.04 24.03 204.74 24.03 204.74 35.48" fill="url(#bc9c0837-b109-405d-b971-924d2d5789a4)"/></svg>