<svg enable-background="new 3.4 687.2 1000 341.9" viewBox="3.4 687.2 1000 341.9" xmlns="http://www.w3.org/2000/svg" xmlns:xlink="http://www.w3.org/1999/xlink"><linearGradient id="a" gradientUnits="userSpaceOnUse" x1="3.400011" x2="1003.445318" y1="858.165589" y2="858.165589"><stop offset="0" stop-color="#274566"/><stop offset="1" stop-color="#22c4f3"/></linearGradient><path d="m118.6 852.4c-13.7 17.4-29.7 26.2-48 26.2-19.7.5-38.3-9.4-49-25.9-12.1-17.2-18.2-39.7-18.2-67.8 0-29.4 6.7-53 19.9-70.9 12.4-17.5 32.7-27.5 54.1-26.8 22.7-.5 44 11.3 55.6 30.9 13.3 20.6 20.1 49.1 20.1 85.5v10.7c.6 25.4-1.8 50.9-7.1 75.9-3.6 16.9-10.7 32.8-20.8 46.8-9.2 11.9-21.4 21.2-35.2 27-16.9 6.7-35.1 9.8-53.3 9.2v-30.1h6.2c24.3-.5 42.7-8 55.3-22.1 12.6-14.3 19.3-37.1 20.4-68.6zm-42.2-3.4c9-.4 17.7-4 24.1-10.3 8.2-7.5 14.5-16.8 18.4-27.2v-15c.8-19.7-3.3-39.5-12-57.2-8.2-14.7-18.1-22.1-29.6-22.1-12.5 0-23.9 7.1-29.5 18.3-7.8 14.4-11.6 30.8-10.9 47.5-.7 16.5 3 33.1 10.7 47.7 5.2 11.2 16.5 18.3 28.8 18.4zm267.2-137.7-96.9 261.6h-35.8l96.8-252.3h-125.7v-29.4h161.6zm-.6 317.8-20.3-13.9c11.5-15.1 18.1-33.3 19-52.3v-32.3h35.1v28.3c-.1 13.6-3.4 27-9.5 39.1-5.9 12-14.1 22.7-24.3 31.1zm231-56.1h-157.5v-25.8l80.3-106.4c9.8-12.6 18.2-26 25.2-40.4 4.8-10.5 7.1-21.9 7.1-33.4.6-13-3.1-25.8-10.5-36.4-6.2-8.9-16.5-14.3-27.3-14-12.8-.7-25.2 4.9-33.2 15-7.8 9.9-11.8 24.1-11.8 42.7h-34c0-25.9 7.1-46.8 21.3-62.9 14.7-16.2 35.8-25 57.6-24 22.5 0 40.2 6.9 53 20.6 13 13.8 19.4 32 19.4 54.8 0 27.8-14.5 60.9-43.5 98.9l-62.8 82h116.6v29.3zm144.5-282v30.4h-5.7c-20.5-.6-40.1 7.8-53.6 23.1-13 14.9-20.3 37.3-22.2 67.3 11.3-15.1 29.1-23.9 48-23.7 19.7-.5 38.4 9.2 49.5 25.7 12 17.1 18.1 39.5 18.1 66.9 0 29.6-6.8 52.9-20.2 70-12.7 17-32.8 26.8-54.1 26.2-22.5.2-43.4-11.3-55.2-30.4-13.9-20.2-20.9-47.2-20.9-80.7v-13.9c0-38.6 4.2-69.6 12.6-92.5 6.7-20.5 19.6-38.3 37.1-51 18.2-11.8 39.4-18 61-17.6h5.7v.2zm-39.7 127c-9.6.1-18.9 3.9-25.8 10.7-8 7.4-13.9 16.8-17 27.1v14.1c-.8 19.4 3.3 38.5 12.1 55.9 8.1 14.4 18 21.5 29.7 21.5 12.5.1 24.1-6.7 30-17.7 7.8-14.3 11.5-30.4 10.8-46.7.7-16.3-3.1-32.5-10.8-46.7-5.4-11.1-16.6-18.1-29-18.2zm172.8-7.5c-.4-10.8 3.1-21.3 9.8-29.7 6.1-7.7 15.6-12.1 25.3-11.9 9.8-.2 19.1 4 25.3 11.7 6.9 8.7 10.5 19.5 9.9 30.6v10.1c.5 10.7-3 21.3-9.8 29.7-6.2 7.6-15.5 11.9-25.2 11.7-9.8.2-19.1-4-25.4-11.7-6.9-8.7-10.5-19.5-10-30.6zm17.8 10.5c-.4 6.3 1.4 12.6 4.8 18 2.7 4.3 7.6 6.9 12.7 6.9 5.1.1 10-2.4 12.7-6.8 3.4-5.6 5.1-12.1 4.8-18.7v-10.1c.4-6.4-1.4-12.7-4.8-18.1-2.7-4.3-7.5-6.9-12.6-6.9-5.1-.1-9.9 2.5-12.6 6.9-3.3 5.5-5 11.9-4.8 18.4zm22.6 136.9-13.2-9.2 82.5-157.4 13.6 9.2zm40.9-34c-.5-10.8 3.1-21.4 9.8-29.7 6.2-7.6 15.6-11.9 25.3-11.7 9.8-.2 19.1 4 25.4 11.7 7 8.7 10.5 19.6 10 30.8v9.8c.5 10.8-3.1 21.4-10 29.8-12 14-33.1 15.6-47.1 3.6-1.3-1.1-2.5-2.3-3.6-3.6-6.9-8.7-10.5-19.5-10-30.6zm17.8 10.7c-.4 6.4 1.4 12.7 4.8 18.1 2.7 4.3 7.6 6.9 12.7 6.9 5.1.1 9.9-2.6 12.5-6.9 3.3-5.5 5-11.9 4.8-18.4v-10.7c.4-6.3-1.3-12.6-4.8-18-4.5-6.9-13.8-8.8-20.7-4.3-1.8 1.2-3.2 2.6-4.3 4.3-3.4 5.5-5.2 12-4.8 18.5z" fill="url(#a)"/></svg>