<?xml version="1.0" encoding="utf-8"?>
<!-- Generator: Adobe Illustrator 18.0.0, SVG Export Plug-In . SVG Version: 6.00 Build 0)  -->
<!DOCTYPE svg PUBLIC "-//W3C//DTD SVG 1.1//EN" "http://www.w3.org/Graphics/SVG/1.1/DTD/svg11.dtd">
<svg version="1.1" id="_x38_4508814-189b-4808-bce8-4314f090a7d1"
	 xmlns="http://www.w3.org/2000/svg" xmlns:xlink="http://www.w3.org/1999/xlink" x="0px" y="0px" viewBox="7.4 357.3 989.6 284.8"
	 enable-background="new 7.4 357.3 989.6 284.8" xml:space="preserve">
<title>цифры</title>
<path d="M97.3,502.6c24.2-31.7,36.3-59.2,36.3-82.4c0-18.9-5.4-34.1-16.1-45.7c-10.8-11.6-25.5-17.3-44.2-17.2
	c-18.2-0.8-35.9,6.5-48.2,20c-11.9,13.4-17.8,30.8-17.7,52.4h28.5c0-15.5,3.2-27.3,9.7-35.6c6.8-8.2,17.1-12.7,27.7-12.1
	c9.1-0.2,17.7,4.2,22.9,11.6c6.2,8.9,9.2,19.5,8.7,30.3c0,9.5-2,18.9-5.8,27.6c-5.8,11.9-12.9,23.2-21,33.6l-67,88.7v21.4h131.3V571
	H45L97.3,502.6z"/>
<linearGradient id="SVGID_1_" gradientUnits="userSpaceOnUse" x1="-12.9358" y1="938.9961" x2="130.5942" y2="1092.9061" gradientTransform="matrix(4.717 0 0 -4.717 3.104107e-05 5070.7544)">
	<stop  offset="0" style="stop-color:#274566"/>
	<stop  offset="0.13" style="stop-color:#274D6F"/>
	<stop  offset="0.35" style="stop-color:#266489"/>
	<stop  offset="0.63" style="stop-color:#248AB2"/>
	<stop  offset="0.95" style="stop-color:#22BDEB"/>
	<stop  offset="0.99" style="stop-color:#22C4F3"/>
</linearGradient>
<path fill="url(#SVGID_1_)" d="M97.3,502.6c24.2-31.7,36.3-59.2,36.3-82.4c0-18.9-5.4-34.1-16.1-45.7
	c-10.8-11.6-25.5-17.3-44.2-17.2c-18.2-0.8-35.9,6.5-48.2,20c-11.9,13.4-17.8,30.8-17.7,52.4h28.5c0-15.5,3.2-27.3,9.7-35.6
	c6.8-8.2,17.1-12.7,27.7-12.1c9.1-0.2,17.7,4.2,22.9,11.6c6.2,8.9,9.2,19.5,8.7,30.3c0,9.5-2,18.9-5.8,27.6
	c-5.8,11.9-12.9,23.2-21,33.6l-67,88.7v21.4h131.3V571H45L97.3,502.6z"/>
<polygon points="168.9,385.1 273.5,385.1 192.9,595.3 222.7,595.3 303.5,377.4 303.5,360.6 168.9,360.6 "/>
<linearGradient id="SVGID_2_" gradientUnits="userSpaceOnUse" x1="-1.1124" y1="927.9622" x2="142.4176" y2="1081.8822" gradientTransform="matrix(4.717 0 0 -4.717 3.104107e-05 5070.7544)">
	<stop  offset="0" style="stop-color:#274566"/>
	<stop  offset="0.13" style="stop-color:#274D6F"/>
	<stop  offset="0.35" style="stop-color:#266489"/>
	<stop  offset="0.63" style="stop-color:#248AB2"/>
	<stop  offset="0.95" style="stop-color:#22BDEB"/>
	<stop  offset="0.99" style="stop-color:#22C4F3"/>
</linearGradient>
<polygon fill="url(#SVGID_2_)" points="168.9,385.1 273.5,385.1 192.9,595.3 222.7,595.3 303.5,377.4 303.5,360.6 168.9,360.6 "/>
<path d="M338.7,587c-0.8,15.8-6.3,30.9-15.8,43.5l16.7,11.6c8.5-7.2,15.3-16.1,20-26.1c5.2-10.1,8.1-21.2,8.3-32.6v-23.6h-29.2V587z
	"/>
<linearGradient id="SVGID_3_" gradientUnits="userSpaceOnUse" x1="28.1962" y1="900.6422" x2="171.7262" y2="1054.5621" gradientTransform="matrix(4.717 0 0 -4.717 3.104107e-05 5070.7544)">
	<stop  offset="0" style="stop-color:#274566"/>
	<stop  offset="0.13" style="stop-color:#274D6F"/>
	<stop  offset="0.35" style="stop-color:#266489"/>
	<stop  offset="0.63" style="stop-color:#248AB2"/>
	<stop  offset="0.95" style="stop-color:#22BDEB"/>
	<stop  offset="0.99" style="stop-color:#22C4F3"/>
</linearGradient>
<path fill="url(#SVGID_3_)" d="M338.7,587c-0.8,15.8-6.3,30.9-15.8,43.5l16.7,11.6c8.5-7.2,15.3-16.1,20-26.1
	c5.2-10.1,8.1-21.2,8.3-32.6v-23.6h-29.2V587z"/>
<path d="M488.1,502.6c24.2-31.7,36.3-59.2,36.3-82.4c0-18.9-5.4-34.1-16.1-45.7c-10.8-11.6-25.5-17.3-44.2-17.2
	c-18.2-0.8-35.9,6.5-48.2,20c-11.9,13.4-17.8,30.8-17.7,52.4h28.3c0-15.5,3.3-27.3,9.8-35.6c6.8-8.3,17.2-12.9,27.9-12.1
	c9.1-0.2,17.7,4.2,22.9,11.6c6.2,8.9,9.2,19.5,8.7,30.3c0,9.6-2,19-5.9,27.8c-5.8,11.9-12.9,23.2-21,33.6l-66.9,88.5v21.4H533V571
	h-97.1L488.1,502.6z"/>
<linearGradient id="SVGID_4_" gradientUnits="userSpaceOnUse" x1="31.3745" y1="897.6751" x2="174.9045" y2="1051.5951" gradientTransform="matrix(4.717 0 0 -4.717 3.104107e-05 5070.7544)">
	<stop  offset="0" style="stop-color:#274566"/>
	<stop  offset="0.13" style="stop-color:#274D6F"/>
	<stop  offset="0.35" style="stop-color:#266489"/>
	<stop  offset="0.63" style="stop-color:#248AB2"/>
	<stop  offset="0.95" style="stop-color:#22BDEB"/>
	<stop  offset="0.99" style="stop-color:#22C4F3"/>
</linearGradient>
<path fill="url(#SVGID_4_)" d="M488.1,502.6c24.2-31.7,36.3-59.2,36.3-82.4c0-18.9-5.4-34.1-16.1-45.7
	c-10.8-11.6-25.5-17.3-44.2-17.2c-18.2-0.8-35.9,6.5-48.2,20c-11.9,13.4-17.8,30.8-17.7,52.4h28.3c0-15.5,3.3-27.3,9.8-35.6
	c6.8-8.3,17.2-12.9,27.9-12.1c9.1-0.2,17.7,4.2,22.9,11.6c6.2,8.9,9.2,19.5,8.7,30.3c0,9.6-2,19-5.9,27.8
	c-5.8,11.9-12.9,23.2-21,33.6l-66.9,88.5v21.4H533V571h-97.1L488.1,502.6z"/>
<polygon points="698,567.1 664.9,470.8 638.7,470.8 638.7,595.3 658.9,595.3 658.9,507.4 691,595.3 705,595.3 736.4,509.4 
	736.4,595.3 756.7,595.3 756.7,470.8 731.4,470.8 "/>
<linearGradient id="SVGID_5_" gradientUnits="userSpaceOnUse" x1="61.6227" y1="869.4675" x2="205.1527" y2="1023.3774" gradientTransform="matrix(4.717 0 0 -4.717 3.104107e-05 5070.7544)">
	<stop  offset="0" style="stop-color:#274566"/>
	<stop  offset="0.13" style="stop-color:#274D6F"/>
	<stop  offset="0.35" style="stop-color:#266489"/>
	<stop  offset="0.63" style="stop-color:#248AB2"/>
	<stop  offset="0.95" style="stop-color:#22BDEB"/>
	<stop  offset="0.99" style="stop-color:#22C4F3"/>
</linearGradient>
<polygon fill="url(#SVGID_5_)" points="698,567.1 664.9,470.8 638.7,470.8 638.7,595.3 658.9,595.3 658.9,507.4 691,595.3 
	705,595.3 736.4,509.4 736.4,595.3 756.7,595.3 756.7,470.8 731.4,470.8 "/>
<path d="M802.4,524.1c-0.8,20.2-2.3,33.7-4.7,40.6c-1.3,5.9-6.1,10.4-12,11.5l-5.2,0.4v18.9h6.8c10.6,0.4,20.4-5.4,25.1-14.9
	c5.2-9.8,8.3-26.4,9.4-49.8l1.9-42.5h33v107.1h20.4V470.8h-72.6L802.4,524.1z"/>
<linearGradient id="SVGID_6_" gradientUnits="userSpaceOnUse" x1="77.8571" y1="854.324" x2="221.3871" y2="1008.244" gradientTransform="matrix(4.717 0 0 -4.717 3.104107e-05 5070.7544)">
	<stop  offset="0" style="stop-color:#274566"/>
	<stop  offset="0.13" style="stop-color:#274D6F"/>
	<stop  offset="0.35" style="stop-color:#266489"/>
	<stop  offset="0.63" style="stop-color:#248AB2"/>
	<stop  offset="0.95" style="stop-color:#22BDEB"/>
	<stop  offset="0.99" style="stop-color:#22C4F3"/>
</linearGradient>
<path fill="url(#SVGID_6_)" d="M802.4,524.1c-0.8,20.2-2.3,33.7-4.7,40.6c-1.3,5.9-6.1,10.4-12,11.5l-5.2,0.4v18.9h6.8
	c10.6,0.4,20.4-5.4,25.1-14.9c5.2-9.8,8.3-26.4,9.4-49.8l1.9-42.5h33v107.1h20.4V470.8h-72.6L802.4,524.1z"/>
<polygon points="976.7,524.8 931.7,524.8 931.7,470.8 911.2,470.8 911.2,595.3 931.7,595.3 931.7,542.2 976.7,542.2 976.7,595.3 
	996.9,595.3 996.9,470.8 976.7,470.8 "/>
<linearGradient id="SVGID_7_" gradientUnits="userSpaceOnUse" x1="90.698" y1="842.3518" x2="234.228" y2="996.2718" gradientTransform="matrix(4.717 0 0 -4.717 3.104107e-05 5070.7544)">
	<stop  offset="0" style="stop-color:#274566"/>
	<stop  offset="0.13" style="stop-color:#274D6F"/>
	<stop  offset="0.35" style="stop-color:#266489"/>
	<stop  offset="0.63" style="stop-color:#248AB2"/>
	<stop  offset="0.95" style="stop-color:#22BDEB"/>
	<stop  offset="0.99" style="stop-color:#22C4F3"/>
</linearGradient>
<polygon fill="url(#SVGID_7_)" points="976.7,524.8 931.7,524.8 931.7,470.8 911.2,470.8 911.2,595.3 931.7,595.3 931.7,542.2 
	976.7,542.2 976.7,595.3 996.9,595.3 996.9,470.8 976.7,470.8 "/>
</svg>
