<svg enable-background="new 0 678.6 1000 351.3" viewBox="0 678.6 1000 351.3" xmlns="http://www.w3.org/2000/svg" xmlns:xlink="http://www.w3.org/1999/xlink"><linearGradient id="a" gradientUnits="userSpaceOnUse" x1=".000031" x2="1000.001163" y1="854.300247" y2="854.300247"><stop offset="0" stop-color="#274566"/><stop offset="1" stop-color="#22c4f3"/></linearGradient><path d="m115.2 1026.6h-42.4v-293.3l-72.8 32.6v-39.9l108.4-47.3h7zm240.8-116.3h38.6v35.9h-38.6v80.4h-41.8v-80.4h-131.2v-25.9l128.7-240h44.3zm-126.4 0h84.2v-164.6zm443.2-67.5v183.8h-30v-157.8h-48.7l-2.9 62.7c-1.6 34.6-6.3 59-13.9 73.5-7 13.7-21.3 22.2-36.7 21.8h-10.2v-27.8l7.6-.7c8.8-1.5 15.8-8.2 17.7-17 3.4-10.1 5.7-30.1 7-59.9l2.9-78.6zm112.8 187.2c-22.9 0-40.5-6.9-52.6-20.5-12.3-13.6-18.6-33.6-18.7-60.1v-22.2c0-27.5 6-49 18-64.4 11.8-15.5 30.5-24.3 50-23.4 21.5 0 37.6 7 48.2 20.9 10.7 13.9 16.1 35.2 16.2 64v19.7h-102.1v4.2c0 19.7 3.7 34 11.1 43 8 9.2 19.9 14.2 32 13.4 8 .1 16.1-1.6 23.4-5 7.3-3.8 13.9-9.4 19-15.9l15.6 19c-13.3 18.2-33.2 27.3-60.1 27.3zm-3.3-164.7c-10.8-.9-21.3 3.9-27.8 12.9-6.9 12.1-10.2 25.9-9.8 39.9h72.2v-4.1c-.9-17.5-4.1-30.1-9.8-37.4-5.8-7.8-15.2-12.1-24.8-11.3zm217.7 2.9h-50.1v158.3h-30v-158.3h-49.4v-25.4h129.5z" fill="url(#a)"/></svg>