<svg enable-background="new 122.5 384.9 53.7 39.3" viewBox="122.5 384.9 53.7 39.3" xmlns="http://www.w3.org/2000/svg"><path d="m175.6 396.1c.5.6.7 1.4.5 2.2l-5.7 23.7c-.1 1.2-1.1 2.2-2.4 2.2h-43.2c-1.3 0-2.4-1.1-2.4-2.4v-30.1c0-1.3 1.1-2.4 2.4-2.4h2.6c.2 0 .3-.1.3-.2l1-2.7c.3-.9 1.2-1.5 2.2-1.5h11.2c1 0 1.8.6 2.2 1.5l1 2.7c.1.1.2.2.3.2h22.4c1.3 0 2.4 1.1 2.4 2.4v3.3h3.2c.8.1 1.5.4 2 1.1zm-1.3 1.7c0-.1 0-.1 0-.2 0-.4-.3-.7-.7-.7h-3.2v17zm-5.8 24v-30.1c0-.3-.2-.5-.5-.5h-22.4c-.9 0-1.8-.6-2.1-1.5l-1-2.7c-.1-.2-.2-.3-.4-.3h-11.2c-.2 0-.3.1-.4.3l-1 2.7c-.3.9-1.2 1.5-2.1 1.5h-2.6c-.3 0-.5.2-.5.5v30.1c0 .3.2.5.5.5h43.2c.3 0 .5-.2.5-.5z" fill="#284566"/><path d="m174.3 397.6v.2l-3.9 16.2v-17h3.2c.4 0 .7.3.7.6z" fill="#fff"/><path d="m168.5 391.7v30.1c0 .3-.2.5-.5.5h-43.2c-.3 0-.5-.2-.5-.5v-30.1c0-.3.2-.5.5-.5h2.6c.9 0 1.8-.6 2.1-1.5l1-2.7c.1-.2.2-.3.4-.3h11.2c.2 0 .3.1.4.3l1 2.7c.3.9 1.2 1.5 2.1 1.5h22.4c.3 0 .5.3.5.5zm-15.4 24.3v-10.7c0-.4-.3-.7-.7-.7h-1.1v-2.6c0-2.7-2.2-4.9-4.9-4.9s-4.9 2.2-4.9 4.9v2.6h-1.1c-.4 0-.7.3-.7.7v10.7c0 .4.3.7.7.7h12c.4 0 .7-.3.7-.7z" fill="#fff"/><path d="m153.1 405.3v10.7c0 .4-.3.7-.7.7h-12c-.4 0-.7-.3-.7-.7v-10.6c0-.4.3-.7.7-.7h1.1v-2.7c0-2.7 2.2-4.9 4.9-4.9s4.9 2.2 4.9 4.9v2.6h1.1c.4 0 .7.3.7.7zm-1.4 9.9v-9.2h-10.6v9.2zm-1.8-10.6v-2.6c0-1.9-1.5-3.4-3.4-3.4s-3.4 1.5-3.4 3.4v2.6z" fill="#35beed"/><g fill="#fff"><path d="m141.1 406h10.6v9.2h-10.6z"/><path d="m149.9 402v2.6h-6.9v-2.6c0-1.9 1.5-3.4 3.4-3.4s3.5 1.5 3.5 3.4z"/></g></svg>