<svg enable-background="new 305.9 0 522.1 425.2" viewBox="305.9 0 522.1 425.2" xmlns="http://www.w3.org/2000/svg"><path d="m426.5 264.9c-5.4-10.3-1.4-23.1 9-28.5 10.3-5.4 23.1-1.4 28.5 9s1.4 23.1-9 28.5c-5.6 2.9-12.3 3.2-18.1.6l-97.2 97.2 1.9-1.4.8-.7-.8.7c41.7-31.8 110.8-38.7 179.3-42.3l76-152.2-72.5-72.5-152.2 75.9c-3.6 68-11 142.6-46.7 184.9l.8.8z" fill="none"/><path d="m326.4 365-.8-.8z" fill="none"/><path d="m692.5 137.8-66.1 47.5-111.5-111.5 47-65.6-11.4-8.2-54 75.4 17.6 17.6-155.3 77.3v4.2c-3.4 66.4-10 139.9-43.2 179.8l10.3 9.9c35.9-42.3 43.1-116.9 46.7-184.9l152.2-75.9 72.5 72.5-76.4 152.1c-68.5 3.6-137.6 10.5-179.3 42.3l-5.1 4.5 10 9.5c38.9-32.5 109.6-38.7 179.3-42.4h4.2l77.6-155.3 17.7 17.7 75.8-54.4z" fill="#284566"/><path d="m436.8 274.9c10.8 4.7 23.3-.2 28-11s-.2-23.3-11-28-23.3.2-28 11c-2.6 5.9-2.3 12.7.7 18.4l-100.1 99.7 10.2 9.8 5.1-4.5-1.9 1.4z" fill="#22c4f3"/><g fill="#284566"><path d="m326.4 365-.8-.8-10.3-9.8c-1.5 1.8-2.9 3.6-4.5 5.2l-4.9 5 10.5 10.5 9.3 9.4 10.9-9.6z"/><path d="m325.7 384.4.7.7 9.5 9.5 5.4-4.8c1.8-1.8 3.7-3.4 5.7-5.1l-10-9.5z"/><path d="m375.6 411.1h452.4v14.1h-452.4z"/></g></svg>