<svg enable-background="new 357.1 -0.1 419.7 425.3" viewBox="357.1 -.1 419.7 425.3" xmlns="http://www.w3.org/2000/svg"><path d="m655.1 145.6c2.4 2.4 6.2 2.4 8.6 0s2.4-6.2 0-8.6l-49.7-49.7c-2.4-2.4-6.2-2.4-8.6 0s-2.4 6.2 0 8.6z" fill="#33beed"/><g fill="none"><path d="m392.2 381.4 194-194.1-19.1-19.1-194 194c-5.4 5.1-5.6 13.7-.5 19.1s13.7 5.6 19.1.5c.2-.1.4-.2.5-.4z"/><path d="m603.8 41c-1.4-1.5-3.1-2.6-5-3.2-2.2-.7-4.3-1.7-6.3-2.9l-80.3 80.3c1.2 2 2.2 4.1 2.9 6.3.6 1.9 1.7 3.7 3.2 5 4.9 4.3 12.3 4 16.8-.6l68-68c4.8-4.5 5.1-12 .7-16.9z"/><path d="m581 20.1c-.6-1.9-1.7-3.7-3.2-5.1-2.2-2-5-3.1-8-3.1-3.3 0-6.5 1.3-8.9 3.7l-68 68c-4.6 4.6-4.9 12-.6 16.8 1.4 1.5 3.1 2.6 5.1 3.2 2.2.7 4.3 1.7 6.3 2.9l80.3-80.2c-1.3-1.9-2.2-4-3-6.2z"/><path d="m650.5 173.1 30.7-30.7-72.7-72.6-61.4 61.3 72.7 72.7z"/><path d="m624.4 232.5c1.4 1.5 3.1 2.6 5.1 3.2 2.2.7 4.3 1.7 6.3 2.9l80.3-80.3c-1.2-2-2.2-4.1-3-6.3-.6-1.9-1.7-3.7-3.2-5-2.2-2-5-3.1-8-3.1-3.3 0-6.5 1.3-8.9 3.7l-68 68c-4.6 4.6-4.9 12-.6 16.9z"/><path d="m558.6 159.8-20.9-20.9c-3.5 1.8-7.4 2.8-11.4 2.8-6 0-11.8-2.2-16.2-6.3-3-2.8-5.2-6.3-6.5-10.2-1.5-4.7-5.2-8.4-9.9-9.9-3.9-1.3-7.4-3.5-10.2-6.5-8.7-9.3-8.3-24.4.9-33.6l68-68c4.2-4.2 9.8-6.7 15.7-7.1h-211v371.9c0-6.8 2.7-13.3 7.5-18.1z"/><path d="m647.2 253.5c.6 1.9 1.7 3.7 3.2 5.1 4.9 4.3 12.3 4 16.8-.6l68-68c4.6-4.6 4.9-12 .6-16.8-1.4-1.5-3.1-2.6-5.1-3.2-2.2-.7-4.3-1.7-6.2-2.9l-80.3 80.3c1.3 1.8 2.3 3.9 3 6.1z"/></g><path d="m382.7 397.5c6.8 0 13.3-2.7 18.1-7.5l194-194.1 17.3 17.3c-6.3 11.6-1.9 26.1 9.7 32.4 1.3.7 2.6 1.3 4 1.7 4.7 1.5 8.4 5.2 10 10 1.3 3.9 3.5 7.4 6.5 10.2 4.4 4.1 10.2 6.3 16.2 6.3 6.5 0 12.8-2.6 17.4-7.2l68-68c9.2-9.2 9.6-24.3.9-33.6-2.8-3-6.3-5.2-10.2-6.5-4.7-1.5-8.4-5.2-10-10-4-12.6-17.5-19.4-30.1-15.4-1.4.4-2.7 1-4 1.7l-74.4-74.4c4.7-9 3.3-20-3.5-27.6-2.8-3-6.3-5.2-10.2-6.5-4.7-1.5-8.4-5.2-10-10-1.3-3.9-3.5-7.4-6.5-10.2-3.9-3.6-9-5.8-14.3-6.2h-3.6c-5.9.4-11.5 3-15.7 7.2l-68 68c-9.2 9.2-9.6 24.3-.9 33.6 2.8 3 6.3 5.2 10.2 6.5 4.7 1.5 8.4 5.2 10 10 1.3 3.9 3.5 7.4 6.5 10.2 4.4 4.1 10.2 6.3 16.2 6.3 4 0 7.9-.9 11.4-2.8l20.9 20.9-194.1 194c-4.8 4.8-7.5 11.3-7.5 18.1.1 14.1 11.6 25.6 25.7 25.6zm341.9-230.6c2 1.2 4.1 2.2 6.3 2.9 1.9.6 3.7 1.7 5.1 3.2 4.3 4.9 4 12.3-.6 16.8l-68 68c-4.6 4.6-12 4.9-16.8.6-1.5-1.4-2.6-3.1-3.2-5.1-.7-2.2-1.7-4.3-2.9-6.2zm-31.6-19.2c2.4-2.4 5.6-3.7 8.9-3.7 2.9 0 5.8 1.1 8 3.1 1.5 1.4 2.6 3.1 3.2 5 .7 2.2 1.7 4.3 3 6.3l-80.3 80.3c-2-1.2-4.1-2.2-6.3-2.9-1.9-.6-3.7-1.7-5.1-3.2-4.3-4.9-4-12.3.6-16.8zm-189.3-41.1c-1.9-1.2-4-2.2-6.2-2.9-1.9-.6-3.7-1.7-5.1-3.2-4.3-4.9-4-12.3.6-16.8l68-68c2.4-2.4 5.6-3.7 8.9-3.7 2.9 0 5.8 1.1 8 3.1 1.5 1.4 2.6 3.1 3.2 5.1.7 2.2 1.7 4.3 2.9 6.3zm31.5 19.3c-4.6 4.7-12 4.9-16.8.6-1.5-1.4-2.6-3.1-3.2-5-.7-2.2-1.7-4.3-2.9-6.2l80.3-80.3c2 1.2 4.1 2.2 6.3 2.9 1.9.6 3.7 1.7 5 3.2 4.3 4.9 4 12.3-.6 16.8zm11.9 5.2 61.4-61.4 72.7 72.7-30.7 30.7-30.6 30.7zm-173.9 231.2 194-194 19.1 19.1-194 194.1c-5.1 5.4-13.7 5.6-19.1.5s-5.6-13.7-.5-19.1c.1-.2.3-.4.5-.6z" fill="#284566"/><path d="m555.4 398.3h208.9v13.7h-208.9z" fill="none"/><path d="m561.6 386.2-6.2 12.1h208.9l-6.2-12.1z" fill="#33beed"/><path d="m561.6 386.2-6.2 12.1v13.7h208.9v-13.7l-6.2-12.1z" fill="none"/><path d="m581.3 347.8h157.2v4.7h-157.2z" fill="none"/><path d="m571.8 0c5.3.4 10.4 2.6 14.3 6.2 3 2.8 5.2 6.3 6.5 10.2 1.5 4.7 5.2 8.4 10 10 3.9 1.3 7.4 3.5 10.2 6.5 6.8 7.6 8.2 18.6 3.5 27.6l74.4 74.4c11.6-6.3 26.1-1.9 32.3 9.7.7 1.3 1.3 2.6 1.7 4 1.5 4.7 5.2 8.4 10 10 3.9 1.3 7.4 3.5 10.2 6.5 8.7 9.3 8.3 24.4-.9 33.6l-68 68c-4.6 4.6-10.9 7.2-17.4 7.2-6 0-11.8-2.2-16.2-6.3-3-2.8-5.2-6.3-6.5-10.2-1.5-4.7-5.2-8.4-10-10-12.6-4.1-19.4-17.5-15.4-30.1.4-1.4 1-2.7 1.7-4l-17.3-17.3-194.1 194c-10 10-26.2 10-36.2 0-4.8-4.8-7.5-11.3-7.5-18.1v53.3h419.7v-425.2zm198.5 424.1h-220.9c-3.3 0-6-2.7-6-6v-25.8c0-1.3.4-2.6 1.2-3.7l24.6-32.1v-14.7c0-3.3 2.7-6 6-6h169.3c3.3 0 6 2.7 6 6v14.7l24.6 32.1c.8 1.1 1.2 2.3 1.2 3.7v25.7c.1 3.4-2.6 6.1-6 6.1z" fill="none"/><path d="m741.5 364.6h-163.3l-16.6 21.6h196.5z" fill="none"/><path d="m738.5 352.5h-157.2l-3.1 12.1h163.3z" fill="#33beed"/><path d="m775.1 388.6-24.6-32.1v-14.7c0-3.3-2.7-6-6-6h-169.2c-3.3 0-6 2.7-6 6v14.7l-24.6 32.1c-.8 1.1-1.2 2.3-1.2 3.7v25.7c0 3.3 2.7 6 6 6h220.9c3.3 0 6-2.7 6-6v-25.8c0-1.3-.4-2.5-1.3-3.6zm-10.8 23.4h-208.9v-13.7l6.2-12.1 16.6-21.7 3.1-12.1v-4.7h157.1v4.7l3.1 12.1 16.6 21.7 6.2 12.1z" fill="#284566"/></svg>