<svg enable-background="new 242 0 649.9 425.2" viewBox="242 0 649.9 425.2" xmlns="http://www.w3.org/2000/svg"><path d="m392.9 41.3-67.3-23-65.4 190.8 69.1 23.7 65.4-190.5-.2-.2z" fill="none"/><path d="m418.1 50.7c15.9 5.6 33.3 4.6 48.4-2.8l8.3-4c11.1-5.4 23.9-6.3 35.6-2.3l158.1 54.5c-1.2 6.9-4.5 18.3-13.2 24.3-7.7 5.3-18.9 5.6-33 .7l-69-23.5c-2.1-.7-4.4-.5-6.4.5-1.9 1.1-3.4 2.9-4 5-.1.4-10.4 38.2-42.3 55.2-20.2 10.9-45.2 11.3-74.3 1.3-4-1.8-8.7 0-10.5 4s0 8.7 4 10.5c.4.2.8.3 1.3.4 14.1 5.1 29 7.8 44 8s29.8-3.4 43.1-10.5c28.5-15.3 42.1-43.2 47.3-57l61.3 21c19.3 6.6 35.1 5.7 47.3-2.7 19.7-13.6 20.6-41.5 20.7-42.7.1-3.5-2-6.6-5.3-7.7l-164-56.6c-15.7-5.3-32.9-4.3-47.9 2.9l-8.3 4c-11.3 5.5-24.2 6.2-36 2l-7.5-2.7-5.6 15.2z" fill="#284566"/><path d="m410.2 47.8 5.6-15.2-6.6-2.4c-.6-.4-1.3-.8-2-1.1l-84-28.6c-2-.7-4.2-.5-6.1.4s-3.3 2.5-4 4.5l-70.5 206c-1.4 4.2.8 8.7 5 10.1l84.2 28.9c.8.4 1.7.5 2.7.5 1.2 0 2.4-.3 3.5-.8 1.9-.9 3.3-2.5 4-4.5l67.9-198.1zm-80.9 185.1-69.1-23.7 65.4-190.8 67.3 23 1.7.8.3.1z" fill="#33beed"/><g fill="none"><path d="m410.2 47.8 7.9 2.8c15.9 5.6 33.3 4.6 48.4-2.8l8.3-4c11.1-5.4 23.9-6.3 35.6-2.3l158.1 54.5c-1.2 6.9-4.5 18.3-13.2 24.3-7.7 5.3-18.9 5.6-33 .7l-69-23.5c-2.1-.7-4.4-.5-6.4.5-1.9 1.1-3.4 2.9-4 5-.1.4-10.4 38.2-42.3 55.2-20.2 10.9-45.2 11.3-74.3 1.3-4-1.8-8.7 0-10.5 4s0 8.7 4 10.5c.4.2.8.3 1.3.4 14.1 5.1 29 7.8 44 8s29.8-3.4 43.1-10.5c28.5-15.3 42.1-43.2 47.3-57l61.3 21c19.3 6.6 35.1 5.7 47.3-2.7 19.7-13.6 20.6-41.5 20.7-42.7.1-3.5-2-6.6-5.3-7.7l-164-56.5c-15.7-5.3-32.9-4.3-47.9 2.9l-8.3 4c-11.3 5.5-24.2 6.2-36 2l-7.5-2.7-6.6-2.4c-.6-.4-1.3-.8-2-1.1l-84-28.6c-2-.7-4.2-.5-6.1.4s-3.3 2.5-4 4.5l-70.5 206.1c-1.4 4.2.8 8.7 5 10.1l84.2 28.9c.8.4 1.7.5 2.7.5 1.2 0 2.4-.3 3.5-.8 1.9-.9 3.3-2.5 4-4.5l67.9-198.1z"/><path d="m718.1 52.3 88.7 181.2 65.5-32.1-88.5-181.2z"/><path d="m242 0v425.2h649.8v-425.2zm95.7 250.2c-1.1.5-2.3.8-3.5.8-.9 0-1.8-.2-2.7-.5l-84.2-28.9c-4.2-1.4-6.4-5.9-5-10.1l70.7-205.9c.7-2 2.1-3.6 4-4.5s4.1-1.1 6.1-.4l84 28.6c.7.3 1.4.7 2 1.1l6.6 2.4 7.4-20.2-7.4 20.2 7.5 2.7c11.8 4.2 24.8 3.5 36-2l8.3-4c15-7.2 32.1-8.2 47.9-2.9l164.2 56.6c3.3 1.1 5.4 4.3 5.3 7.7-.1 1.2-1.1 29.1-20.7 42.7-12.2 8.3-28.1 9.3-47.3 2.7l-61.3-21c-5.2 13.8-18.9 41.7-47.3 57-13.2 7.1-28.1 10.7-43.1 10.5s-29.9-2.9-44-8c-4.3-1.1-6.8-5.4-5.7-9.7s5.4-6.8 9.7-5.7c.4.1.9.3 1.3.4 29.1 10 54.1 9.6 74.3-1.3 31.9-17 42.1-54.8 42.3-55.2.6-2.1 2.1-3.9 4-5 2-1 4.3-1.2 6.4-.5l69 23.5c14.1 5 25.3 4.7 33-.7 8.6-6 12-17.4 13.2-24.3l-158.2-54.6c-11.7-4.1-24.6-3.3-35.7 2.1l-8.3 4c-15.1 7.3-32.5 8.3-48.4 2.8l-7.9-2.8-1.9 5.5 2.1-5.6-.6-.2-67.9 198.1c-.8 2-2.3 3.7-4.2 4.6zm549.1-38.5-78.8 38.5-7.3 6.7 5.7 11.4-5.7-11.4-27.4 25.2c-27.6 25.4-58.7 46.7-92.4 63.2l-153 74.8c-4.6 2.3-9.6 3.4-14.8 3.5-3.8 0-7.5-.7-11-1.9-8.5-2.9-15.5-9.1-19.4-17.2-2.9-5.6-4-12-3.3-18.3l-14.6 7.3c-4.6 2.3-9.6 3.5-14.8 3.5-12.9 0-24.7-7.3-30.3-18.9-3-6.3-4.1-13.4-2.9-20.3-1.5.1-2.9.3-4.4.3-18.6 0-33.7-15-33.8-33.6 0-9.1 3.6-17.8 10.1-24.1-14.5-7.8-21.2-25-15.8-40.6 2.9-8.5 9.1-15.5 17.2-19.4l58.4-28.6c3.9-2.1 8.7-.7 10.8 3.2s.7 8.7-3.2 10.8c-.2.1-.4.2-.7.3l-58.4 28.6c-4.2 2.1-7.5 5.8-9 10.2-1.6 4.4-1.3 9.3.8 13.6 2.1 4.2 5.8 7.5 10.2 9 4.4 1.6 9.3 1.3 13.6-.8l39.4-19.3 70.6-34.6c4-1.9 8.7-.2 10.6 3.7 1.9 4 .2 8.7-3.7 10.6l-110 53.8-15.2 7.4c-8.9 4.1-12.8 14.7-8.6 23.6 4.1 8.9 14.7 12.8 23.6 8.6.2-.1.5-.2.7-.3l15-7.3 31.9-15.6 91-44.5c4-1.9 8.7-.2 10.6 3.7 1.9 4 .2 8.7-3.7 10.6l-122.8 60.1c-8.7 4.5-12.1 15.3-7.6 24 4.4 8.5 14.7 12 23.3 7.9l42.1-20.6 83.6-41c3.9-2.1 8.7-.7 10.8 3.2s.7 8.7-3.2 10.8c-.2.1-.4.2-.7.3l-85.5 41.9c-4.2 2.1-7.5 5.8-9 10.2-1.6 4.4-1.3 9.3.8 13.6 2.1 4.2 5.8 7.5 10.2 9 4.4 1.6 9.3 1.3 13.6-.8l153-74.8c32.3-15.8 62.2-36.2 88.7-60.5l31.2-28.6-93-189.6c-1.9-4-.2-8.7 3.7-10.6l79.9-39.1c1.9-.9 4.1-1.1 6.1-.4s3.6 2.1 4.5 4l96 195c1.9 3.9.2 8.6-3.7 10.6z"/></g><path d="m762.1 270.8c-26.5 24.3-56.4 44.7-88.7 60.5l-153 74.8c-4.2 2.1-9.1 2.4-13.6.8s-8.1-4.8-10.2-9-2.4-9.1-.8-13.6 4.8-8.1 9-10.2l85.5-41.9c4.1-1.7 5.9-6.4 4.2-10.5s-6.4-5.9-10.5-4.2c-.2.1-.5.2-.7.3l-83.6 41-42.1 20.6c-8.9 4.1-19.5.3-23.6-8.6-4-8.6-.5-18.9 7.9-23.3l122.9-60.1c4-1.9 5.6-6.7 3.7-10.6-1.9-4-6.7-5.6-10.6-3.7l-90.9 44.6-32 15.5-15 7.3c-8.7 4.5-19.5 1.1-24-7.6s-1.1-19.5 7.6-24c.2-.1.4-.2.7-.3l15.2-7.4 110-53.8c4-1.9 5.6-6.7 3.7-10.6-1.9-4-6.7-5.6-10.6-3.7l-70.6 34.4-39.4 19.3c-4.2 2.1-9.1 2.4-13.6.8s-8.1-4.8-10.2-9-2.4-9.1-.8-13.6 4.8-8.1 9-10.2l58.3-28.5c4.1-1.7 5.9-6.4 4.2-10.5s-6.4-5.9-10.5-4.2c-.2.1-.5.2-.7.3l-58.4 28.6c-8.1 3.9-14.2 10.9-17.2 19.4-5.4 15.6 1.3 32.8 15.8 40.6-13.3 13-13.5 34.3-.4 47.6 6.4 6.5 15 10.1 24.1 10.1 1.5 0 2.9-.1 4.4-.3-1.1 6.9-.1 14 2.9 20.3 5.7 11.6 17.4 18.9 30.3 18.9 5.1 0 10.2-1.2 14.8-3.5l14.5-7.2c-.7 6.3.4 12.6 3.3 18.3 3.9 8.1 10.9 14.2 19.4 17.2 3.6 1.2 7.3 1.8 11 1.9 5.1 0 10.2-1.2 14.8-3.5l153-74.8c33.7-16.5 64.8-37.8 92.4-63.2l27.4-25.2-7.3-14.7z" fill="#284566"/><path d="m794.5 6c-.9-1.9-2.5-3.3-4.5-4s-4.2-.5-6.1.4l-79.9 39.1c-3.9 1.9-5.6 6.7-3.7 10.6l93.1 190.1 7.3 14.7 7.3-6.7 78.8-38.6c3.9-1.9 5.6-6.7 3.7-10.6zm12.3 227.5-88.7-181.2 65.7-32 88.6 181.2z" fill="#33beed"/></svg>