<svg enable-background="new 354.3 0 425.3 425.2" viewBox="354.3 0 425.3 425.2" xmlns="http://www.w3.org/2000/svg"><path d="m767.4 139.6c-8.1-9-37.5-24.3-63 4.9l-19.4-19.4-15.2 15.2v-140.3h-201.8l-113.7 113.8v311.4h315.4v-129.8l97.7-97.7c9-8.1 22.1-33.9 0-58.1zm-303.4-116.2v86.3h-86.3zm192.1 388.2h-288.1v-288.1h109.8v-109.8h178.3v140.3l-43.8 43.8 9.7 9.7 63-63 9.7 9.7-166.3 166.2-17.4 75.7 75.7-17.5 69.4-69.4zm-117.5-74.1 31 31-40.3 9.3zm44.6 25.2-38.8-38.8 160.1-160.1 38.8 38.8zm174.5-174.6-4.9 4.9-38.8-38.8 4.9-4.9c10.4-10.4 28.5-10.4 38.8 0 14.2 14.1 6.7 33 0 38.8z" fill="#284566"/><g fill="#22c4f3"><path d="m620.1 273.2h13.7v13.7h-13.7z" transform="matrix(-.7071 .7071 -.7071 -.7071 1268.4048 34.7778)"/><path d="m639.5 253.8h13.7v13.7h-13.7z" transform="matrix(-.7071 .7071 -.7071 -.7071 1287.781 -12.1733)"/><path d="m658.9 234.4h13.7v13.7h-13.7z" transform="matrix(-.707 .7072 -.7072 -.707 1307.1544 -59.054)"/><path d="m388.6 377.2h102.9v13.7h-102.9z"/><path d="m553.2 61.8h13.7v13.7h-13.7z"/><path d="m580.6 61.8h13.7v13.7h-13.7z"/><path d="m525.7 61.8h13.7v13.7h-13.7z"/><path d="m388.6 171.5h198.9v13.7h-198.9z"/><path d="m388.6 240.1h178.3v13.7h-178.3z"/><path d="m388.6 308.7h123.5v13.7h-123.5z"/></g></svg>