<?xml version="1.0" encoding="utf-8"?>
<!-- Generator: Adobe Illustrator 18.0.0, SVG Export Plug-In . SVG Version: 6.00 Build 0)  -->
<!DOCTYPE svg PUBLIC "-//W3C//DTD SVG 1.1//EN" "http://www.w3.org/Graphics/SVG/1.1/DTD/svg11.dtd">
<svg version="1.1" id="Layer_1" xmlns="http://www.w3.org/2000/svg" xmlns:xlink="http://www.w3.org/1999/xlink" x="0px" y="0px"
	 viewBox="0 0 425.2 425.2" enable-background="new 0 0 425.2 425.2" xml:space="preserve">
<g id="XMLID_1_">
	<g>
		<polygon fill="#FFFFFF" points="407.8,209.8 407.8,407.6 17,407.6 17,209.8 58.6,209.8 58.6,248.7 127.3,248.7 127.3,220.1 
			127.3,209.8 297.4,209.8 297.4,248.7 366.1,248.7 366.1,209.8 		"/>
		<polygon fill="#FFFFFF" points="407.8,89.1 407.8,192.2 366.1,192.2 366.1,149.5 297.4,149.5 297.4,192.2 127.3,192.2 
			127.3,190.3 127.3,149.5 58.6,149.5 58.6,192.2 17,192.2 17,89.1 		"/>
		<path fill="#22C4F3" d="M366.1,209.8v38.9h-68.7v-38.9v-17.6v-42.7h68.7v42.7V209.8z M349.8,231.1v-64h-35.2v64H349.8z"/>
		<rect x="314.6" y="167.1" fill="#FFFFFF" width="35.2" height="64"/>
		<rect x="127.3" y="192.2" fill="#274566" width="170.1" height="17.6"/>
		<path fill="#274566" d="M297.4,71.5V34.4c0.2-7.6-4.6-14-11.3-16.5c-0.5-0.2-1.1-0.4-1.6-0.5c-1.1-0.3-2.2-0.5-3.4-0.6
			c-0.2,0-0.5,0-0.7,0c-0.1,0-0.1,0-0.2,0H132.9c-0.1,0-0.3,0-0.4,0c-0.2,0-0.4,0-0.7,0c-1.2,0.1-2.3,0.3-3.4,0.6
			c-0.3,0.1-0.7,0.2-1,0.3c-0.2,0.1-0.4,0.1-0.6,0.2c-0.2,0.1-0.4,0.2-0.7,0.3c-6.4,2.6-10.8,8.9-10.6,16.2v37.1h0.2h181.5H297.4z
			 M425.2,71.5v353.7H0V71.5h99.4V34.4C99.4,14.8,114.9,0,132.9,0h147.3c19.1,0,33.5,15.9,33.5,34.4v37.1H425.2z M407.8,407.6V209.8
			h-41.7v-17.6h41.7V89.1H17v103.1h41.7v17.6H17v197.8H407.8z"/>
		<path fill="#FFFFFF" d="M297.2,34.4v37.1H115.7V34.4c0-7.3,4.2-13.5,10.4-16.2c0.2-0.1,0.4-0.2,0.7-0.3c0.2-0.1,0.4-0.1,0.6-0.2
			c0.3-0.1,0.7-0.2,1-0.3c1.1-0.3,2.2-0.5,3.4-0.6c0.2,0,0.4,0,0.7,0c0.1,0,0.3,0,0.4,0h147.3c0.1,0,0.1,0,0.2,0c0.2,0,0.4,0,0.7,0
			c1.2,0.1,2.3,0.3,3.4,0.6c0.6,0.1,1.1,0.3,1.6,0.5C292.7,20.4,297.2,26.9,297.2,34.4z"/>
		<path fill="#274566" d="M297.2,34.4c0-7.5-4.5-14-11-16.5c6.7,2.5,11.4,8.9,11.3,16.5v37.1h-0.2V34.4z"/>
		<path fill="#274566" d="M132.5,16.8c-0.2,0-0.4,0-0.7,0C132.1,16.8,132.3,16.8,132.5,16.8z"/>
		<path fill="#274566" d="M131.8,16.8c-1.2,0.1-2.3,0.3-3.4,0.6C129.5,17.1,130.6,16.9,131.8,16.8z"/>
		<path fill="#274566" d="M127.4,17.7c-0.2,0.1-0.4,0.1-0.6,0.2C127,17.8,127.2,17.7,127.4,17.7z"/>
		<path fill="#22C4F3" d="M127.3,190.3v1.9v17.6v10.3v28.6H58.6v-38.9v-17.6v-42.7h68.7V190.3z M111,231.1v-64H75.8v64H111z"/>
		<rect x="75.8" y="167.1" fill="#FFFFFF" width="35.2" height="64"/>
	</g>
	<g>
	</g>
</g>
</svg>
