<?xml version="1.0" encoding="utf-8"?>
<!-- Generator: Adobe Illustrator 18.0.0, SVG Export Plug-In . SVG Version: 6.00 Build 0)  -->
<!DOCTYPE svg PUBLIC "-//W3C//DTD SVG 1.1//EN" "http://www.w3.org/Graphics/SVG/1.1/DTD/svg11.dtd">
<svg version="1.1" id="Layer_1" xmlns="http://www.w3.org/2000/svg" xmlns:xlink="http://www.w3.org/1999/xlink" x="0px" y="0px"
	 viewBox="98.7 136.7 100.8 100.8" enable-background="new 98.7 136.7 100.8 100.8" xml:space="preserve">
<g id="XMLID_2_">
	<g>
		<rect x="101.1" y="153.9" fill="#FFFFFF" width="81.9" height="80.7"/>
	</g>
</g>
<g>
	<g id="XMLID_1_">
		<g>
			<path fill="#33BEED" d="M198.8,137.4c0.9,0.9,0.9,2.5,0,3.4l-65.9,65.9c-0.9,0.9-2.5,0.9-3.4,0L111.9,189c-1-0.9-1-2.5,0-3.4
				c0.9-0.9,2.5-0.9,3.4,0l15.9,15.9l64.1-64.1C196.3,136.4,197.8,136.5,198.8,137.4z"/>
			<path fill="#284566" d="M184.7,172v63c0,1.3-1.1,2.4-2.4,2.4h-81.1c-1.3,0-2.4-1.1-2.4-2.4v-81.1c0-1.3,1.1-2.4,2.4-2.4h61.7
				c1.3,0,2.4,1.1,2.4,2.4s-1.1,2.4-2.4,2.4h-59.3v76.3h76.3V172c0-1.3,1.1-2.4,2.4-2.4C183.6,169.6,184.7,170.7,184.7,172z"/>
		</g>
		<g>
		</g>
	</g>
</g>
</svg>
