<svg id="Capa_1" data-name="Capa 1" xmlns="http://www.w3.org/2000/svg" viewBox="0 0 512 347"><defs><style>.cls-1{opacity:0.6;}.cls-2{fill:#254060;}</style></defs><title>email2</title><g class="cls-1"><g id="Shape_17" data-name="Shape 17"><path class="cls-2" d="M512,46.81a41.93,41.93,0,0,0-11.2-28.36c-.11-.15-.14-.33-.26-.48s-.27-.19-.4-.31A43,43,0,0,0,469,4.29H43A43.06,43.06,0,0,0,11.86,17.67c-.11.12-.28.18-.4.32s-.15.33-.26.48A41.94,41.94,0,0,0,0,46.81v250.6a42,42,0,0,0,11.68,28.92c.14.16.19.35.34.5s.11.06.17.11a43.07,43.07,0,0,0,30.84,13H469a43.07,43.07,0,0,0,30.84-13c.05,0,.11-.06.17-.11s.19-.34.34-.49A42,42,0,0,0,512,297.41V46.81ZM344.41,158.87,492,36.53a24.52,24.52,0,0,1,2.3,10.28v250.6a24.61,24.61,0,0,1-1.88,9.38ZM469,21.82a25.33,25.33,0,0,1,10.41,2.28L256,209.3,32.62,24.09A25.34,25.34,0,0,1,43,21.82Zm-449.35,285a24.57,24.57,0,0,1-1.88-9.38V46.81A24.51,24.51,0,0,1,20,36.53L167.59,158.87ZM43,322.39a25.25,25.25,0,0,1-11.34-2.77L181.22,170.16l69.09,57.28a8.91,8.91,0,0,0,11.39,0l69.09-57.28L480.3,319.62A25.24,25.24,0,0,1,469,322.39H43Z"/></g></g></svg>