<?xml version="1.0" encoding="utf-8"?>
<!-- Generator: Adobe Illustrator 18.0.0, SVG Export Plug-In . SVG Version: 6.00 Build 0)  -->
<!DOCTYPE svg PUBLIC "-//W3C//DTD SVG 1.1//EN" "http://www.w3.org/Graphics/SVG/1.1/DTD/svg11.dtd">
<svg version="1.1" id="Capa_1" xmlns="http://www.w3.org/2000/svg" xmlns:xlink="http://www.w3.org/1999/xlink" x="0px" y="0px"
	 viewBox="271 -70.9 652 566.9" enable-background="new 271 -70.9 652 566.9" xml:space="preserve">
<g>
	<g id="Shape_17">
		<g>
			<path fill="#FFFFFF" d="M921.3,124.9c0-13.9-5.5-26.4-14.2-36c-0.2-0.2-0.2-0.5-0.3-0.6c-0.2-0.2-0.3-0.3-0.5-0.5
				c-9.9-10.4-24-16.9-39.5-16.9H327.2c-15.6,0-29.6,6.6-39.5,16.9c-0.2,0.2-0.3,0.2-0.5,0.5c-0.2,0.2-0.2,0.5-0.3,0.6
				c-8.7,9.6-14.2,22.1-14.2,35.9v317.5c0,14.2,5.6,27,14.8,36.6c0.2,0.2,0.3,0.5,0.5,0.6l0.2,0.2c9.9,10.1,23.8,16.5,39.1,16.5
				h539.6c15.4,0,29.1-6.4,39.1-16.5l0.2-0.2c0.2-0.2,0.3-0.5,0.5-0.6c9.2-9.6,14.8-22.4,14.8-36.6V124.9L921.3,124.9z M709.1,266.9
				l186.9-155c1.8,4,2.9,8.4,2.9,13v317.5c0,4.3-0.9,8.2-2.4,11.9L709.1,266.9z M866.8,93.3c4.7,0,9.2,1.1,13.1,2.9L597,330.8
				l-283-234.6c4-1.8,8.5-2.9,13.1-2.9L866.8,93.3L866.8,93.3z M297.5,454.3c-1.5-3.7-2.4-7.6-2.4-11.9V124.9c0-4.6,1.1-9,2.9-13
				l186.9,155L297.5,454.3z M327.2,474.1c-5.2,0-10.1-1.4-14.3-3.5l189.3-189.3l87.6,72.6c2.1,1.7,4.6,2.6,7.2,2.6s5.2-0.9,7.2-2.6
				l87.6-72.6l189.5,189.3c-4.3,2.1-9.2,3.5-14.3,3.5H327.2L327.2,474.1z"/>
		</g>
	</g>
</g>
</svg>
