<?xml version="1.0" encoding="utf-8"?>
<!-- Generator: Adobe Illustrator 18.0.0, SVG Export Plug-In . SVG Version: 6.00 Build 0)  -->
<!DOCTYPE svg PUBLIC "-//W3C//DTD SVG 1.1//EN" "http://www.w3.org/Graphics/SVG/1.1/DTD/svg11.dtd">
<svg version="1.1" id="Layer_1" xmlns="http://www.w3.org/2000/svg" xmlns:xlink="http://www.w3.org/1999/xlink" x="0px" y="0px"
	 viewBox="354.3 0 425.2 425.2" enable-background="new 354.3 0 425.2 425.2" xml:space="preserve">
<g id="XMLID_1_">
	<g>
		<path fill="#FFFFFF" d="M766.3,43.1c17.6,17.6,17.6,56-0.1,102.9c-19.4,51.5-57.8,107.6-108.1,157.8
			c-50.3,50.3-106.3,88.6-157.8,108.1c-23.5,8.9-44.9,13.3-62.6,13.3s-31.6-4.4-40.3-13.1c-2.5-2.5-5.2-5.1-8-7.7
			c-16.9-16-36.1-34.2-35.1-58.3c0.7-16.6,11-32.6,31.4-49.1c60.4-48.6,81.9-26.7,106.9-1.4l4.5,4.5c7.5,7.5,25.7-2.5,36-9.2
			c16.2-10.5,36.5-28,60.3-51.8c72.9-72.9,65.1-92.1,61-96.3l-4.5-4.4c-25.4-25-47.3-46.5,1.3-107C667.7,11,683.7,0.7,700.3,0
			c24.1-0.8,42.2,18.1,58.3,35C761.2,37.9,763.8,40.6,766.3,43.1z M752.9,141c15.2-40.2,16.5-74.6,3.4-87.7c-2.6-2.6-5.3-5.4-8-8.3
			c-13.7-14.4-29.1-30.6-46.2-30.6c-0.4,0-0.8,0-1.2,0c-12.1,0.5-25,9.3-38.6,26.1c-40.5,50.4-26.2,64.4-2.4,87.8l4.6,4.5
			c18.9,19-0.4,56-60.9,116.5c-24.5,24.5-45.6,42.5-62.6,53.6c-24.6,16-42.7,18.5-53.9,7.3l-4.6-4.6c-23.3-23.7-37.4-38-87.7,2.5
			c-16.8,13.5-25.6,26.5-26.1,38.6c-0.7,17.5,15.9,33.4,30.6,47.3c2.9,2.7,5.7,5.4,8.3,8c13.1,13.1,47.5,11.8,87.7-3.4
			C545,379.8,599.2,342.6,648,293.8C696.9,244.9,734.1,190.6,752.9,141z"/>
	</g>
	<g>
	</g>
</g>
</svg>
