<?xml version="1.0" encoding="utf-8"?>
<!-- Generator: Adobe Illustrator 18.0.0, SVG Export Plug-In . SVG Version: 6.00 Build 0)  -->
<!DOCTYPE svg PUBLIC "-//W3C//DTD SVG 1.1//EN" "http://www.w3.org/Graphics/SVG/1.1/DTD/svg11.dtd">
<svg version="1.1" id="Layer_1" xmlns="http://www.w3.org/2000/svg" xmlns:xlink="http://www.w3.org/1999/xlink" x="0px" y="0px" viewBox="0 0 210 61.2" enable-background="new 0 0 210 61.2" xml:space="preserve">
    <defs>
        <linearGradient id="gradient_1" x1="0.72" y1="31.02" x2="177.36" y2="31.02" gradientUnits="userSpaceOnUse">
            <stop offset="0" stop-color="#274566" />
            <stop offset="1" stop-color="#22c4f3" />
        </linearGradient>
    </defs>
    <path fill="url('#gradient_1')" d="M21.06,30q-3.62,4.61-8.48,4.61a10,10,0,0,1-8.65-4.58Q.72,25.48.72,18.06q0-7.79,3.5-12.51A11.26,11.26,0,0,1,13.78.83,11.11,11.11,0,0,1,23.6,6.29q3.54,5.45,3.54,15.09v1.88a58.49,58.49,0,0,1-1.25,13.4,21.88,21.88,0,0,1-3.67,8.27A15.36,15.36,0,0,1,16,49.69a23.78,23.78,0,0,1-9.4,1.62V46H7.69q6.43-.14,9.76-3.91T21.06,30Zm-7.45-.62a6.46,6.46,0,0,0,4.27-1.83,12.11,12.11,0,0,0,3.25-4.8V20.11A20.85,20.85,0,0,0,19,10Q16.82,6.1,13.78,6.1A5.86,5.86,0,0,0,8.57,9.33a16.19,16.19,0,0,0-1.93,8.39,16.74,16.74,0,0,0,1.88,8.43A5.7,5.7,0,0,0,13.61,29.41ZM60.8,5.07,43.68,51.28H37.35L54.44,6.71H32.26V1.52H60.8ZM60.69,61.2,57.1,58.74a16.5,16.5,0,0,0,3.35-9.23V43.8h6.19v5a15.57,15.57,0,0,1-1.69,6.9A16.17,16.17,0,0,1,60.69,61.2Zm40.8-9.91H73.66V46.74l14.18-18.8a41.33,41.33,0,0,0,4.46-7.13,14.26,14.26,0,0,0,1.25-5.9,10.44,10.44,0,0,0-1.85-6.43A5.78,5.78,0,0,0,86.86,6,7,7,0,0,0,81,8.64q-2.07,2.61-2.07,7.54h-6q0-6.87,3.76-11.11A13,13,0,0,1,86.86.83q5.95,0,9.37,3.64t3.42,9.69q0,7.38-7.69,17.47L80.88,46.12h20.61ZM127,1.48V6.85h-1a12.25,12.25,0,0,0-9.47,4.08q-3.42,3.95-3.93,11.88a10.36,10.36,0,0,1,8.48-4.17,10.18,10.18,0,0,1,8.73,4.53Q133,27.7,133,35q0,7.83-3.57,12.37A11.56,11.56,0,0,1,119.88,52a11.32,11.32,0,0,1-9.74-5.37q-3.69-5.37-3.69-14.25V29.92q0-10.25,2.22-16.34a18,18,0,0,1,6.55-9A19.17,19.17,0,0,1,126,1.48ZM120,23.91a6.66,6.66,0,0,0-4.55,1.88,10.63,10.63,0,0,0-3,4.79v2.5a20,20,0,0,0,2.14,9.86q2.14,3.81,5.25,3.81a5.93,5.93,0,0,0,5.3-3.13,15.67,15.67,0,0,0,1.91-8.25,15.9,15.9,0,0,0-1.91-8.25A5.78,5.78,0,0,0,120,23.91Zm30.5-1.33a8,8,0,0,1,1.72-5.26,5.53,5.53,0,0,1,4.48-2.09,5.62,5.62,0,0,1,4.48,2.05,8,8,0,0,1,1.75,5.4v1.78a7.89,7.89,0,0,1-1.72,5.25,5.55,5.55,0,0,1-4.46,2.05,5.65,5.65,0,0,1-4.49-2.05,8,8,0,0,1-1.76-5.4Zm3.15,1.87a5.38,5.38,0,0,0,.85,3.17,2.63,2.63,0,0,0,2.25,1.21A2.57,2.57,0,0,0,159,27.64a5.61,5.61,0,0,0,.84-3.29V22.56a5.43,5.43,0,0,0-.85-3.19,2.61,2.61,0,0,0-2.22-1.21,2.56,2.56,0,0,0-2.22,1.22,5.7,5.7,0,0,0-.83,3.25Zm4,24.16L155.31,47,169.89,19.2l2.39,1.61Zm7.23-6a7.9,7.9,0,0,1,1.73-5.26,5.57,5.57,0,0,1,4.47-2.06,5.65,5.65,0,0,1,4.49,2.05,8.08,8.08,0,0,1,1.76,5.44v1.73a7.82,7.82,0,0,1-1.76,5.27,5.89,5.89,0,0,1-8.94,0,8,8,0,0,1-1.76-5.4Zm3.15,1.89a5.43,5.43,0,0,0,.85,3.19,2.63,2.63,0,0,0,2.25,1.21,2.54,2.54,0,0,0,2.2-1.22,5.71,5.71,0,0,0,.83-3.25V42.55a5.37,5.37,0,0,0-.85-3.18,2.64,2.64,0,0,0-4.42,0,5.5,5.5,0,0,0-.85,3.27Z" />
</svg>