<?xml version="1.0" encoding="utf-8"?>
<!-- Generator: Adobe Illustrator 18.0.0, SVG Export Plug-In . SVG Version: 6.00 Build 0)  -->
<!DOCTYPE svg PUBLIC "-//W3C//DTD SVG 1.1//EN" "http://www.w3.org/Graphics/SVG/1.1/DTD/svg11.dtd">
<svg version="1.1" id="Layer_1" xmlns="http://www.w3.org/2000/svg" xmlns:xlink="http://www.w3.org/1999/xlink" x="0px" y="0px" viewBox="0 0 210 61.2" enable-background="new 0 0 210 61.2" xml:space="preserve">
    <defs>
        <linearGradient id="gradient_1" x1="0.73" y1="30.6" x2="196.1" y2="30.6" gradientUnits="userSpaceOnUse">
            <stop offset="0" stop-color="#274566" />
            <stop offset="1" stop-color="#22c4f3" />
        </linearGradient>
    </defs>
    <path fill="url('#gradient_1')" d="M17.27,50.64H11.19V8.5L.73,13.18V7.44L16.32.64h1ZM51.89,33.93h5.54v5.16H51.89V50.64h-6V39.09H27V35.37L45.54.88h6.36Zm-18.15,0h12.1V10.28ZM63.37,60.56,59.79,58.1a16.5,16.5,0,0,0,3.35-9.23V43.16h6.19v5A15.57,15.57,0,0,1,67.63,55,16.18,16.18,0,0,1,63.37,60.56ZM96.09.84V6.21h-1a12.26,12.26,0,0,0-9.47,4.08q-3.42,3.95-3.93,11.88A10.36,10.36,0,0,1,90.18,18a10.18,10.18,0,0,1,8.73,4.53q3.23,4.53,3.23,11.88,0,7.83-3.57,12.37A11.56,11.56,0,0,1,89,51.33,11.32,11.32,0,0,1,79.24,46q-3.69-5.37-3.69-14.25V29.28q0-10.25,2.22-16.34a18,18,0,0,1,6.55-9A19.17,19.17,0,0,1,95.06.84ZM89.15,23.27a6.66,6.66,0,0,0-4.55,1.88,10.63,10.63,0,0,0-3,4.79v2.5a20,20,0,0,0,2.14,9.86Q85.87,46.1,89,46.1A5.93,5.93,0,0,0,94.28,43a15.67,15.67,0,0,0,1.91-8.25,15.89,15.89,0,0,0-1.91-8.25A5.78,5.78,0,0,0,89.15,23.27Zm44.08,21.4,7.08-20.43h5.37V50.64h-4.3V32.43l-6.67,18.21h-3L125,32V50.64h-4.3V24.23h5.57ZM171,24.23V50.64h-4.32V28h-7l-.42,9q-.34,7.45-2,10.56A5.69,5.69,0,0,1,152,50.64h-1.44v-4l1.1-.1a3.15,3.15,0,0,0,2.55-2.43q.74-2.19,1-8.61l.42-11.3ZM196.1,50.64h-4.3V39.37h-9.52V50.64h-4.35V24.23h4.35V35.68h9.52V24.23h4.3Z" />
</svg>