<?xml version="1.0" encoding="utf-8"?>
<!-- Generator: Adobe Illustrator 18.0.0, SVG Export Plug-In . SVG Version: 6.00 Build 0)  -->
<!DOCTYPE svg PUBLIC "-//W3C//DTD SVG 1.1//EN" "http://www.w3.org/Graphics/SVG/1.1/DTD/svg11.dtd">
<svg version="1.1" id="Layer_1" xmlns="http://www.w3.org/2000/svg" xmlns:xlink="http://www.w3.org/1999/xlink" x="0px" y="0px" viewBox="0 0 210 61.2" enable-background="new 0 0 210 61.2" xml:space="preserve">
    <defs>
        <linearGradient id="gradient_1" y1="25.25" x2="143.71" y2="25.25" gradientUnits="userSpaceOnUse">
            <stop offset="0" stop-color="#274566" />
            <stop offset="1" stop-color="#22c4f3" />
        </linearGradient>
    </defs>
    <path fill="url('#gradient_1')" class="cls-1" d="M16.54,50H10.46V7.86L0,12.54V6.8L15.59,0h1ZM51.16,33.29H56.7v5.16H51.16V50h-6V38.45H26.31V34.73L44.81.24h6.36ZM33,33.29h12.1V9.64Zm63.69-9.7V50H92.38V27.32h-7l-.42,9q-.34,7.45-2,10.56A5.7,5.7,0,0,1,77.68,50H76.24V46l1.1-.1a3.15,3.15,0,0,0,2.55-2.43q.74-2.18,1-8.61l.42-11.3Zm16.21,26.9q-4.93,0-7.57-2.94t-2.69-8.63v-3.2q0-5.91,2.58-9.27a8.55,8.55,0,0,1,7.19-3.36q4.64,0,6.93,3t2.34,9.2v2.83H107v.61q0,4.25,1.6,6.18a5.64,5.64,0,0,0,4.6,1.93,7.46,7.46,0,0,0,3.36-.72,8.34,8.34,0,0,0,2.72-2.28l2.25,2.73Q118.67,50.49,112.91,50.49Zm-.49-23.68a4.53,4.53,0,0,0-4,1.84A10.94,10.94,0,0,0,107,34.38h10.4v-.59Q117.21,30,116,28.42A4.18,4.18,0,0,0,112.42,26.81Zm31.29.44h-7.2V50h-4.3V27.25h-7.1V23.59h18.6Z" />
</svg>