<?xml version="1.0" encoding="utf-8"?>
<!-- Generator: Adobe Illustrator 18.0.0, SVG Export Plug-In . SVG Version: 6.00 Build 0)  -->
<!DOCTYPE svg PUBLIC "-//W3C//DTD SVG 1.1//EN" "http://www.w3.org/Graphics/SVG/1.1/DTD/svg11.dtd">
<svg version="1.1" id="Layer_1" xmlns="http://www.w3.org/2000/svg" xmlns:xlink="http://www.w3.org/1999/xlink" x="0px" y="0px" viewBox="0 0 210 61.2" enable-background="new 0 0 210 61.2" xml:space="preserve">
    <defs>
        <linearGradient id="gradient_1" x1="0.45" y1="30.7" x2="205.36" y2="30.7" gradientUnits="userSpaceOnUse">
            <stop offset="0" stop-color="#274566" />
            <stop offset="1" stop-color="#22c4f3" />
        </linearGradient>
    </defs>
    <path fill="url('#gradient_1')" d="M26.09,14.19a13.14,13.14,0,0,1-1.66,6.63A12.12,12.12,0,0,1,20,25.37a12.62,12.62,0,0,1,5.2,4.9A14.06,14.06,0,0,1,27,37.54Q27,44,23.41,47.81a12.67,12.67,0,0,1-9.66,3.85,12.67,12.67,0,0,1-9.66-3.85Q.45,44,.45,37.54a14.4,14.4,0,0,1,1.86-7.33,12.14,12.14,0,0,1,5.08-4.87A11.77,11.77,0,0,1,3,20.81a13.37,13.37,0,0,1-1.61-6.61q0-6.29,3.4-10a11.62,11.62,0,0,1,9-3.69,11.63,11.63,0,0,1,8.94,3.66Q26.09,7.84,26.09,14.19ZM21,37.4a10.83,10.83,0,0,0-2-6.85A6.4,6.4,0,0,0,13.68,28a6.23,6.23,0,0,0-5.28,2.6A11.18,11.18,0,0,0,6.47,37.4a10.53,10.53,0,0,0,1.9,6.7,6.47,6.47,0,0,0,5.38,2.39,6.42,6.42,0,0,0,5.37-2.39A10.6,10.6,0,0,0,21,37.4ZM20.07,14.3A10.11,10.11,0,0,0,18.3,8.11a5.44,5.44,0,0,0-4.55-2.39A5.41,5.41,0,0,0,9.14,8.07,10.36,10.36,0,0,0,7.43,14.3a10,10,0,0,0,1.74,6.19,5.48,5.48,0,0,0,4.58,2.29,5.43,5.43,0,0,0,4.61-2.32A10.15,10.15,0,0,0,20.07,14.3ZM60.35,29.74q0,11-3.21,16.46T47.05,51.65q-6.67,0-9.95-5.23T33.69,30.7V22.16q0-10.9,3.23-16.27T47,.52q6.73,0,10,5.09T60.35,21Zm-6-8.65q0-7.9-1.74-11.64A5.81,5.81,0,0,0,47,5.72a5.74,5.74,0,0,0-5.47,3.67q-1.74,3.67-1.81,11.09V30.74q0,7.86,1.81,11.81t5.54,3.95q3.69,0,5.43-3.73T54.3,31.39ZM67.16,60.88l-3.59-2.46a16.5,16.5,0,0,0,3.35-9.23V43.48H73.1v5a15.57,15.57,0,0,1-1.69,6.9A16.18,16.18,0,0,1,67.16,60.88Zm38.16-46.69a13.15,13.15,0,0,1-1.66,6.63,12.13,12.13,0,0,1-4.46,4.55,12.62,12.62,0,0,1,5.2,4.9,14.06,14.06,0,0,1,1.88,7.26q0,6.43-3.64,10.27A12.67,12.67,0,0,1,93,51.65a12.67,12.67,0,0,1-9.66-3.85Q79.68,44,79.68,37.54a14.4,14.4,0,0,1,1.86-7.33,12.14,12.14,0,0,1,5.08-4.87,11.77,11.77,0,0,1-4.41-4.53,13.37,13.37,0,0,1-1.61-6.61q0-6.29,3.4-10a12.75,12.75,0,0,1,17.91,0Q105.31,7.84,105.32,14.19ZM100.22,37.4a10.83,10.83,0,0,0-2-6.85A6.4,6.4,0,0,0,92.91,28a6.23,6.23,0,0,0-5.28,2.6A11.18,11.18,0,0,0,85.7,37.4a10.53,10.53,0,0,0,1.9,6.7,7.23,7.23,0,0,0,10.75,0A10.6,10.6,0,0,0,100.22,37.4ZM99.3,14.3a10.11,10.11,0,0,0-1.78-6.19,5.6,5.6,0,0,0-9.16,0,10.36,10.36,0,0,0-1.71,6.22,10,10,0,0,0,1.74,6.19,5.73,5.73,0,0,0,9.19,0A10.15,10.15,0,0,0,99.3,14.3ZM142.49,45l7.08-20.43h5.37V51h-4.3V32.76L144,51h-3l-6.81-18.65V51h-4.3V24.55h5.57ZM180.3,24.55V51H176V28.29h-7l-.42,9q-.34,7.45-2,10.56A5.7,5.7,0,0,1,161.28,51h-1.44V47l1.1-.1a3.15,3.15,0,0,0,2.55-2.43q.75-2.18,1-8.61l.42-11.3ZM205.36,51h-4.3V39.69h-9.52V51H187.2V24.55h4.35V36h9.52V24.55h4.3Z" />
</svg>