<?xml version="1.0" encoding="utf-8"?>
<!-- Generator: Adobe Illustrator 18.0.0, SVG Export Plug-In . SVG Version: 6.00 Build 0)  -->
<!DOCTYPE svg PUBLIC "-//W3C//DTD SVG 1.1//EN" "http://www.w3.org/Graphics/SVG/1.1/DTD/svg11.dtd">
<svg version="1.1" id="Layer_1" xmlns="http://www.w3.org/2000/svg" xmlns:xlink="http://www.w3.org/1999/xlink" x="0px" y="0px"
	 viewBox="122.5 384.9 53.7 39.3" enable-background="new 122.5 384.9 53.7 39.3" xml:space="preserve">
<g>
	<g id="XMLID_1_">
		<g>
			<path fill="#284566" d="M175.6,396.1c0.5,0.6,0.7,1.4,0.5,2.2l-5.7,23.7c-0.1,1.2-1.1,2.2-2.4,2.2h-43.2c-1.3,0-2.4-1.1-2.4-2.4
				v-30.1c0-1.3,1.1-2.4,2.4-2.4h2.6c0.2,0,0.3-0.1,0.3-0.2l1-2.7c0.3-0.9,1.2-1.5,2.2-1.5h11.2c1,0,1.8,0.6,2.2,1.5l1,2.7
				c0.1,0.1,0.2,0.2,0.3,0.2H168c1.3,0,2.4,1.1,2.4,2.4v3.3h3.2C174.4,395.1,175.1,395.4,175.6,396.1L175.6,396.1z M174.3,397.8
				c0-0.1,0-0.1,0-0.2c0-0.4-0.3-0.7-0.7-0.7h-3.2v17L174.3,397.8z M168.5,421.8v-30.1c0-0.3-0.2-0.5-0.5-0.5h-22.4
				c-0.9,0-1.8-0.6-2.1-1.5l-1-2.7c-0.1-0.2-0.2-0.3-0.4-0.3h-11.2c-0.2,0-0.3,0.1-0.4,0.3l-1,2.7c-0.3,0.9-1.2,1.5-2.1,1.5h-2.6
				c-0.3,0-0.5,0.2-0.5,0.5v30.1c0,0.3,0.2,0.5,0.5,0.5H168C168.3,422.3,168.5,422.1,168.5,421.8z"/>
			<path fill="#FFFFFF" d="M174.3,397.6c0,0.1,0,0.1,0,0.2l-3.9,16.2v-17h3.2C174,397,174.3,397.3,174.3,397.6z"/>
			<path fill="#FFFFFF" d="M168.5,391.7v30.1c0,0.3-0.2,0.5-0.5,0.5h-43.2c-0.3,0-0.5-0.2-0.5-0.5v-30.1c0-0.3,0.2-0.5,0.5-0.5h2.6
				c0.9,0,1.8-0.6,2.1-1.5l1-2.7c0.1-0.2,0.2-0.3,0.4-0.3h11.2c0.2,0,0.3,0.1,0.4,0.3l1,2.7c0.3,0.9,1.2,1.5,2.1,1.5H168
				C168.3,391.2,168.5,391.5,168.5,391.7z M153.1,416v-10.7c0-0.4-0.3-0.7-0.7-0.7h-1.1V402c0-2.7-2.2-4.9-4.9-4.9
				c-2.7,0-4.9,2.2-4.9,4.9v2.6h-1.1c-0.4,0-0.7,0.3-0.7,0.7V416c0,0.4,0.3,0.7,0.7,0.7c0,0,0,0,0,0h12
				C152.8,416.7,153.1,416.4,153.1,416z"/>
			<path fill="#35BEED" d="M153.1,405.3V416c0,0.4-0.3,0.7-0.7,0.7h-12c0,0,0,0,0,0c-0.4,0-0.7-0.3-0.7-0.7v-10.6
				c0-0.4,0.3-0.7,0.7-0.7h1.1V402c0-2.7,2.2-4.9,4.9-4.9c2.7,0,4.9,2.2,4.9,4.9v2.6h1.1C152.8,404.6,153.1,404.9,153.1,405.3z
				 M151.7,415.2l0-9.2h-10.6v9.2H151.7z M149.9,404.6V402c0-1.9-1.5-3.4-3.4-3.4c-1.9,0-3.4,1.5-3.4,3.4v2.6H149.9z"/>
			<rect x="141.1" y="406" fill="#FFFFFF" width="10.6" height="9.2"/>
			<path fill="#FFFFFF" d="M149.9,402v2.6H143V402c0-1.9,1.5-3.4,3.4-3.4C148.3,398.6,149.9,400.1,149.9,402z"/>
		</g>
		<g>
		</g>
	</g>
</g>
</svg>
