<?xml version="1.0" encoding="utf-8"?>
<!-- Generator: Adobe Illustrator 18.0.0, SVG Export Plug-In . SVG Version: 6.00 Build 0)  -->
<!DOCTYPE svg PUBLIC "-//W3C//DTD SVG 1.1//EN" "http://www.w3.org/Graphics/SVG/1.1/DTD/svg11.dtd">
<svg version="1.1" id="Layer_1" xmlns="http://www.w3.org/2000/svg" xmlns:xlink="http://www.w3.org/1999/xlink" x="0px" y="0px"
	 viewBox="354.3 0 425.3 425.2" enable-background="new 354.3 0 425.3 425.2" xml:space="preserve">
<path fill="#284566" d="M767.4,139.6c-8.1-9-37.5-24.3-63,4.9L685,125.1l-15.2,15.2V0H468L354.3,113.8v311.4h315.4V295.4l97.7-97.7
	C776.4,189.6,789.5,163.8,767.4,139.6z M464,23.4v86.3h-86.3L464,23.4z M656.1,411.6H368V123.5h109.8V13.7h178.3V154l-43.8,43.8
	l9.7,9.7l63-63l9.7,9.7L528.4,320.4L511,396.1l75.7-17.5l69.4-69.4V411.6z M538.6,337.5l31,31l-40.3,9.3L538.6,337.5z M583.2,362.7
	l-38.8-38.8l160.1-160.1l38.8,38.8L583.2,362.7z M757.7,188.1l-4.9,4.9l-38.8-38.8l4.9-4.9c10.4-10.4,28.5-10.4,38.8,0
	C771.9,163.4,764.4,182.3,757.7,188.1z"/>
<rect x="620.1" y="273.2" transform="matrix(-0.7071 0.7071 -0.7071 -0.7071 1268.4048 34.7778)" fill="#22C4F3" width="13.7" height="13.7"/>
<rect x="639.5" y="253.8" transform="matrix(-0.7071 0.7071 -0.7071 -0.7071 1287.781 -12.1733)" fill="#22C4F3" width="13.7" height="13.7"/>
<rect x="658.9" y="234.4" transform="matrix(-0.707 0.7072 -0.7072 -0.707 1307.1544 -59.054)" fill="#22C4F3" width="13.7" height="13.7"/>
<rect x="388.6" y="377.2" fill="#22C4F3" width="102.9" height="13.7"/>
<rect x="553.2" y="61.8" fill="#22C4F3" width="13.7" height="13.7"/>
<rect x="580.6" y="61.8" fill="#22C4F3" width="13.7" height="13.7"/>
<rect x="525.7" y="61.8" fill="#22C4F3" width="13.7" height="13.7"/>
<rect x="388.6" y="171.5" fill="#22C4F3" width="198.9" height="13.7"/>
<rect x="388.6" y="240.1" fill="#22C4F3" width="178.3" height="13.7"/>
<rect x="388.6" y="308.7" fill="#22C4F3" width="123.5" height="13.7"/>
</svg>
