<?xml version="1.0" encoding="utf-8"?>
<!-- Generator: Adobe Illustrator 18.0.0, SVG Export Plug-In . SVG Version: 6.00 Build 0)  -->
<!DOCTYPE svg PUBLIC "-//W3C//DTD SVG 1.1//EN" "http://www.w3.org/Graphics/SVG/1.1/DTD/svg11.dtd">
<svg version="1.1" id="Layer_1" xmlns="http://www.w3.org/2000/svg" xmlns:xlink="http://www.w3.org/1999/xlink" x="0px" y="0px"
	 viewBox="242 0 649.9 425.2" enable-background="new 242 0 649.9 425.2" xml:space="preserve">
<polygon fill="none" points="392.9,41.3 325.6,18.3 260.2,209.1 329.3,232.8 394.7,42.3 394.5,42.1 "/>
<path fill="#284566" d="M418.1,50.7c15.9,5.6,33.3,4.6,48.4-2.8l8.3-4c11.1-5.4,23.9-6.3,35.6-2.3l158.1,54.5
	c-1.2,6.9-4.5,18.3-13.2,24.3c-7.7,5.3-18.9,5.6-33,0.7l-69-23.5c-2.1-0.7-4.4-0.5-6.4,0.5c-1.9,1.1-3.4,2.9-4,5
	c-0.1,0.4-10.4,38.2-42.3,55.2c-20.2,10.9-45.2,11.3-74.3,1.3c-4-1.8-8.7,0-10.5,4c-1.8,4,0,8.7,4,10.5c0.4,0.2,0.8,0.3,1.3,0.4
	c14.1,5.1,29,7.8,44,8c15,0.2,29.8-3.4,43.1-10.5c28.5-15.3,42.1-43.2,47.3-57l61.3,21c19.3,6.6,35.1,5.7,47.3-2.7
	c19.7-13.6,20.6-41.5,20.7-42.7c0.1-3.5-2-6.6-5.3-7.7L515.5,26.3c-15.7-5.3-32.9-4.3-47.9,2.9l-8.3,4c-11.3,5.5-24.2,6.2-36,2
	l-7.5-2.7l-5.6,15.2L418.1,50.7z"/>
<path fill="#33BEED" d="M410.2,47.8l5.6-15.2l-6.6-2.4c-0.6-0.4-1.3-0.8-2-1.1l-84-28.6c-2-0.7-4.2-0.5-6.1,0.4
	c-1.9,0.9-3.3,2.5-4,4.5l-70.5,206c-1.4,4.2,0.8,8.7,5,10.1l84.2,28.9c0.8,0.4,1.7,0.5,2.7,0.5c1.2,0,2.4-0.3,3.5-0.8
	c1.9-0.9,3.3-2.5,4-4.5l67.9-198.1L410.2,47.8z M329.3,232.9l-69.1-23.7l65.4-190.8l67.3,23l1.7,0.8l0.3,0.1L329.3,232.9z"/>
<path fill="none" d="M410.2,47.8l7.9,2.8c15.9,5.6,33.3,4.6,48.4-2.8l8.3-4c11.1-5.4,23.9-6.3,35.6-2.3l158.1,54.5
	c-1.2,6.9-4.5,18.3-13.2,24.3c-7.7,5.3-18.9,5.6-33,0.7l-69-23.5c-2.1-0.7-4.4-0.5-6.4,0.5c-1.9,1.1-3.4,2.9-4,5
	c-0.1,0.4-10.4,38.2-42.3,55.2c-20.2,10.9-45.2,11.3-74.3,1.3c-4-1.8-8.7,0-10.5,4c-1.8,4,0,8.7,4,10.5c0.4,0.2,0.8,0.3,1.3,0.4
	c14.1,5.1,29,7.8,44,8c15,0.2,29.8-3.4,43.1-10.5c28.5-15.3,42.1-43.2,47.3-57l61.3,21c19.3,6.6,35.1,5.7,47.3-2.7
	c19.7-13.6,20.6-41.5,20.7-42.7c0.1-3.5-2-6.6-5.3-7.7L515.5,26.3c-15.7-5.3-32.9-4.3-47.9,2.9l-8.3,4c-11.3,5.5-24.2,6.2-36,2
	l-7.5-2.7l-6.6-2.4c-0.6-0.4-1.3-0.8-2-1.1l-84-28.6c-2-0.7-4.2-0.5-6.1,0.4c-1.9,0.9-3.3,2.5-4,4.5l-70.5,206.1
	c-1.4,4.2,0.8,8.7,5,10.1l84.2,28.9c0.8,0.4,1.7,0.5,2.7,0.5c1.2,0,2.4-0.3,3.5-0.8c1.9-0.9,3.3-2.5,4-4.5l67.9-198.1L410.2,47.8z"
	/>
<polygon fill="none" points="718.1,52.3 806.8,233.5 872.3,201.4 783.8,20.2 "/>
<path fill="none" d="M242,0v425.2h649.8V0H242z M337.7,250.2c-1.1,0.5-2.3,0.8-3.5,0.8c-0.9,0-1.8-0.2-2.7-0.5l-84.2-28.9
	c-4.2-1.4-6.4-5.9-5-10.1L313,5.6c0.7-2,2.1-3.6,4-4.5c1.9-0.9,4.1-1.1,6.1-0.4l84,28.6c0.7,0.3,1.4,0.7,2,1.1l6.6,2.4l7.4-20.2
	l-7.4,20.2l7.5,2.7c11.8,4.2,24.8,3.5,36-2l8.3-4c15-7.2,32.1-8.2,47.9-2.9l164.2,56.6c3.3,1.1,5.4,4.3,5.3,7.7
	c-0.1,1.2-1.1,29.1-20.7,42.7c-12.2,8.3-28.1,9.3-47.3,2.7l-61.3-21c-5.2,13.8-18.9,41.7-47.3,57c-13.2,7.1-28.1,10.7-43.1,10.5
	c-15-0.2-29.9-2.9-44-8c-4.3-1.1-6.8-5.4-5.7-9.7c1.1-4.3,5.4-6.8,9.7-5.7c0.4,0.1,0.9,0.3,1.3,0.4c29.1,10,54.1,9.6,74.3-1.3
	c31.9-17,42.1-54.8,42.3-55.2c0.6-2.1,2.1-3.9,4-5c2-1,4.3-1.2,6.4-0.5l69,23.5c14.1,5,25.3,4.7,33-0.7c8.6-6,12-17.4,13.2-24.3
	L510.5,41.7c-11.7-4.1-24.6-3.3-35.7,2.1l-8.3,4c-15.1,7.3-32.5,8.3-48.4,2.8l-7.9-2.8l-1.9,5.5l2.1-5.6l-0.6-0.2l-67.9,198.1
	C341.1,247.6,339.6,249.3,337.7,250.2z M886.8,211.7L808,250.2l-7.3,6.7l5.7,11.4l-5.7-11.4l-27.4,25.2
	c-27.6,25.4-58.7,46.7-92.4,63.2l-153,74.8c-4.6,2.3-9.6,3.4-14.8,3.5c-3.8,0-7.5-0.7-11-1.9c-8.5-2.9-15.5-9.1-19.4-17.2
	c-2.9-5.6-4-12-3.3-18.3l-14.6,7.3c-4.6,2.3-9.6,3.5-14.8,3.5c-12.9,0-24.7-7.3-30.3-18.9c-3-6.3-4.1-13.4-2.9-20.3
	c-1.5,0.1-2.9,0.3-4.4,0.3c-18.6,0-33.7-15-33.8-33.6c0-9.1,3.6-17.8,10.1-24.1c-14.5-7.8-21.2-25-15.8-40.6
	c2.9-8.5,9.1-15.5,17.2-19.4l58.4-28.6c3.9-2.1,8.7-0.7,10.8,3.2c2.1,3.9,0.7,8.7-3.2,10.8c-0.2,0.1-0.4,0.2-0.7,0.3l-58.4,28.6
	c-4.2,2.1-7.5,5.8-9,10.2c-1.6,4.4-1.3,9.3,0.8,13.6c2.1,4.2,5.8,7.5,10.2,9c4.4,1.6,9.3,1.3,13.6-0.8l39.4-19.3l70.6-34.6
	c4-1.9,8.7-0.2,10.6,3.7c1.9,4,0.2,8.7-3.7,10.6l-110,53.8l-15.2,7.4c-8.9,4.1-12.8,14.7-8.6,23.6c4.1,8.9,14.7,12.8,23.6,8.6
	c0.2-0.1,0.5-0.2,0.7-0.3l15-7.3l31.9-15.6l91-44.5c4-1.9,8.7-0.2,10.6,3.7c1.9,4,0.2,8.7-3.7,10.6l0,0l-122.8,60.1
	c-8.7,4.5-12.1,15.3-7.6,24c4.4,8.5,14.7,12,23.3,7.9l42.1-20.6l83.6-41c3.9-2.1,8.7-0.7,10.8,3.2c2.1,3.9,0.7,8.7-3.2,10.8
	c-0.2,0.1-0.4,0.2-0.7,0.3l-85.5,41.9c-4.2,2.1-7.5,5.8-9,10.2c-1.6,4.4-1.3,9.3,0.8,13.6c2.1,4.2,5.8,7.5,10.2,9
	c4.4,1.6,9.3,1.3,13.6-0.8l153-74.8c32.3-15.8,62.2-36.2,88.7-60.5l31.2-28.6L700.3,52.2c-1.9-4-0.2-8.7,3.7-10.6l79.9-39.1
	c1.9-0.9,4.1-1.1,6.1-0.4c2,0.7,3.6,2.1,4.5,4l96,195C892.4,205,890.7,209.7,886.8,211.7z"/>
<path fill="#284566" d="M762.1,270.8c-26.5,24.3-56.4,44.7-88.7,60.5l-153,74.8c-4.2,2.1-9.1,2.4-13.6,0.8c-4.5-1.6-8.1-4.8-10.2-9
	c-2.1-4.2-2.4-9.1-0.8-13.6c1.6-4.5,4.8-8.1,9-10.2l85.5-41.9c4.1-1.7,5.9-6.4,4.2-10.5c-1.7-4.1-6.4-5.9-10.5-4.2
	c-0.2,0.1-0.5,0.2-0.7,0.3l-83.6,41l-42.1,20.6c-8.9,4.1-19.5,0.3-23.6-8.6c-4-8.6-0.5-18.9,7.9-23.3l122.9-60.1
	c4-1.9,5.6-6.7,3.7-10.6c-1.9-4-6.7-5.6-10.6-3.7l0,0l-90.9,44.6L435,333.2l-15,7.3c-8.7,4.5-19.5,1.1-24-7.6
	c-4.5-8.7-1.1-19.5,7.6-24c0.2-0.1,0.4-0.2,0.7-0.3l15.2-7.4l110-53.8c4-1.9,5.6-6.7,3.7-10.6c-1.9-4-6.7-5.6-10.6-3.7L452,267.5
	l-39.4,19.3c-4.2,2.1-9.1,2.4-13.6,0.8c-4.5-1.6-8.1-4.8-10.2-9c-2.1-4.2-2.4-9.1-0.8-13.6c1.6-4.5,4.8-8.1,9-10.2l58.3-28.5
	c4.1-1.7,5.9-6.4,4.2-10.5c-1.7-4.1-6.4-5.9-10.5-4.2c-0.2,0.1-0.5,0.2-0.7,0.3l-58.4,28.6c-8.1,3.9-14.2,10.9-17.2,19.4
	c-5.4,15.6,1.3,32.8,15.8,40.6c-13.3,13-13.5,34.3-0.4,47.6c6.4,6.5,15,10.1,24.1,10.1c1.5,0,2.9-0.1,4.4-0.3
	c-1.1,6.9-0.1,14,2.9,20.3c5.7,11.6,17.4,18.9,30.3,18.9c5.1,0,10.2-1.2,14.8-3.5l14.5-7.2c-0.7,6.3,0.4,12.6,3.3,18.3
	c3.9,8.1,10.9,14.2,19.4,17.2c3.6,1.2,7.3,1.8,11,1.9c5.1,0,10.2-1.2,14.8-3.5l153-74.8c33.7-16.5,64.8-37.8,92.4-63.2l27.4-25.2
	l-7.3-14.7L762.1,270.8z"/>
<path fill="#33BEED" d="M794.5,6c-0.9-1.9-2.5-3.3-4.5-4c-2-0.7-4.2-0.5-6.1,0.4L704,41.5c-3.9,1.9-5.6,6.7-3.7,10.6l93.1,190.1
	l7.3,14.7l7.3-6.7l78.8-38.6c3.9-1.9,5.6-6.7,3.7-10.6L794.5,6z M806.8,233.5L718.1,52.3l65.7-32l88.6,181.2L806.8,233.5z"/>
</svg>
