<?xml version="1.0" encoding="utf-8"?>
<!-- Generator: Adobe Illustrator 18.0.0, SVG Export Plug-In . SVG Version: 6.00 Build 0)  -->
<!DOCTYPE svg PUBLIC "-//W3C//DTD SVG 1.1//EN" "http://www.w3.org/Graphics/SVG/1.1/DTD/svg11.dtd">
<svg version="1.1" id="Layer_1" xmlns="http://www.w3.org/2000/svg" xmlns:xlink="http://www.w3.org/1999/xlink" x="0px" y="0px"
	 viewBox="305.9 0 522.1 425.2" enable-background="new 305.9 0 522.1 425.2" xml:space="preserve">
<path fill="none" d="M426.5,264.9c-5.4-10.3-1.4-23.1,9-28.5c10.3-5.4,23.1-1.4,28.5,9s1.4,23.1-9,28.5c-5.6,2.9-12.3,3.2-18.1,0.6
	l-97.2,97.2l1.9-1.4l0.8-0.7l-0.8,0.7c41.7-31.8,110.8-38.7,179.3-42.3l76-152.2l-72.5-72.5l-152.2,75.9
	c-3.6,68-11,142.6-46.7,184.9l0.8,0.8L426.5,264.9z"/>
<polygon fill="none" points="326.4,365 326.4,365 325.6,364.2 325.6,364.2 "/>
<path fill="#284566" d="M692.5,137.8l-66.1,47.5L514.9,73.8l47-65.6L550.5,0l-54,75.4L514.1,93l-155.3,77.3v4.2
	c-3.4,66.4-10,139.9-43.2,179.8l10.3,9.9c35.9-42.3,43.1-116.9,46.7-184.9l152.2-75.9l72.5,72.5l-76.4,152.1
	c-68.5,3.6-137.6,10.5-179.3,42.3l-5.1,4.5l10,9.5c38.9-32.5,109.6-38.7,179.3-42.4h4.2l77.6-155.3l17.7,17.7l75.8-54.4L692.5,137.8
	z"/>
<path fill="#22C4F3" d="M436.8,274.9c10.8,4.7,23.3-0.2,28-11c4.7-10.8-0.2-23.3-11-28c-10.8-4.7-23.3,0.2-28,11
	c-2.6,5.9-2.3,12.7,0.7,18.4L326.4,365l10.2,9.8l5.1-4.5l-1.9,1.4L436.8,274.9z"/>
<path fill="#284566" d="M326.4,365L326.4,365l-0.8-0.8l0,0l-10.3-9.8c-1.5,1.8-2.9,3.6-4.5,5.2l-4.9,5l10.5,10.5l9.3,9.4l10.9-9.6
	L326.4,365z"/>
<path fill="#284566" d="M325.7,384.4l0.7,0.7l0,0l9.5,9.5l5.4-4.8c1.8-1.8,3.7-3.4,5.7-5.1l-10-9.5L325.7,384.4z"/>
<rect x="375.6" y="411.1" fill="#284566" width="452.4" height="14.1"/>
</svg>
