<?xml version="1.0" encoding="utf-8"?>
<!-- Generator: Adobe Illustrator 18.0.0, SVG Export Plug-In . SVG Version: 6.00 Build 0)  -->
<!DOCTYPE svg PUBLIC "-//W3C//DTD SVG 1.1//EN" "http://www.w3.org/Graphics/SVG/1.1/DTD/svg11.dtd">
<svg version="1.1" id="Layer_1" xmlns="http://www.w3.org/2000/svg" xmlns:xlink="http://www.w3.org/1999/xlink" x="0px" y="0px"
	 viewBox="357.1 -0.1 419.7 425.3" enable-background="new 357.1 -0.1 419.7 425.3" xml:space="preserve">
<path fill="#33BEED" d="M655.1,145.6c2.4,2.4,6.2,2.4,8.6,0c2.4-2.4,2.4-6.2,0-8.6l0,0l-49.7-49.7c-2.4-2.4-6.2-2.4-8.6,0
	c-2.4,2.4-2.4,6.2,0,8.6L655.1,145.6z"/>
<path fill="none" d="M392.2,381.4l194-194.1l-19.1-19.1l-194,194c-5.4,5.1-5.6,13.7-0.5,19.1c5.1,5.4,13.7,5.6,19.1,0.5
	C391.9,381.7,392.1,381.6,392.2,381.4L392.2,381.4z"/>
<path fill="none" d="M603.8,41c-1.4-1.5-3.1-2.6-5-3.2c-2.2-0.7-4.3-1.7-6.3-2.9l-80.3,80.3c1.2,2,2.2,4.1,2.9,6.3
	c0.6,1.9,1.7,3.7,3.2,5c4.9,4.3,12.3,4,16.8-0.6l68-68C607.9,53.4,608.2,45.9,603.8,41z"/>
<path fill="none" d="M581,20.1c-0.6-1.9-1.7-3.7-3.2-5.1c-2.2-2-5-3.1-8-3.1c-3.3,0-6.5,1.3-8.9,3.7l-68,68
	c-4.6,4.6-4.9,12-0.6,16.8c1.4,1.5,3.1,2.6,5.1,3.2c2.2,0.7,4.3,1.7,6.3,2.9L584,26.3C582.7,24.4,581.8,22.3,581,20.1z"/>
<polygon fill="none" points="650.5,173.1 681.2,142.4 608.5,69.8 547.1,131.1 619.8,203.8 "/>
<path fill="none" d="M624.4,232.5c1.4,1.5,3.1,2.6,5.1,3.2c2.2,0.7,4.3,1.7,6.3,2.9l80.3-80.3c-1.2-2-2.2-4.1-3-6.3
	c-0.6-1.9-1.7-3.7-3.2-5c-2.2-2-5-3.1-8-3.1c-3.3,0-6.5,1.3-8.9,3.7l-68,68C620.4,220.2,620.1,227.6,624.4,232.5z"/>
<path fill="none" d="M558.6,159.8l-20.9-20.9c-3.5,1.8-7.4,2.8-11.4,2.8c-6,0-11.8-2.2-16.2-6.3c-3-2.8-5.2-6.3-6.5-10.2
	c-1.5-4.7-5.2-8.4-9.9-9.9c-3.9-1.3-7.4-3.5-10.2-6.5c-8.7-9.3-8.3-24.4,0.9-33.6l68-68c4.2-4.2,9.8-6.7,15.7-7.1h-211v371.9
	c0-6.8,2.7-13.3,7.5-18.1L558.6,159.8z"/>
<path fill="none" d="M647.2,253.5c0.6,1.9,1.7,3.7,3.2,5.1c4.9,4.3,12.3,4,16.8-0.6l68-68c4.6-4.6,4.9-12,0.6-16.8
	c-1.4-1.5-3.1-2.6-5.1-3.2c-2.2-0.7-4.3-1.7-6.2-2.9l-80.3,80.3C645.5,249.2,646.5,251.3,647.2,253.5z"/>
<path fill="#284566" d="M382.7,397.5c6.8,0,13.3-2.7,18.1-7.5l194-194.1l17.3,17.3c-6.3,11.6-1.9,26.1,9.7,32.4
	c1.3,0.7,2.6,1.3,4,1.7c4.7,1.5,8.4,5.2,10,10c1.3,3.9,3.5,7.4,6.5,10.2c4.4,4.1,10.2,6.3,16.2,6.3c6.5,0,12.8-2.6,17.4-7.2l68-68
	c9.2-9.2,9.6-24.3,0.9-33.6c-2.8-3-6.3-5.2-10.2-6.5c-4.7-1.5-8.4-5.2-10-10c-4-12.6-17.5-19.4-30.1-15.4c-1.4,0.4-2.7,1-4,1.7
	l-74.4-74.4c4.7-9,3.3-20-3.5-27.6c-2.8-3-6.3-5.2-10.2-6.5c-4.7-1.5-8.4-5.2-10-10c-1.3-3.9-3.5-7.4-6.5-10.2
	c-3.9-3.6-9-5.8-14.3-6.2h-3.6c-5.9,0.4-11.5,3-15.7,7.2l-68,68c-9.2,9.2-9.6,24.3-0.9,33.6c2.8,3,6.3,5.2,10.2,6.5
	c4.7,1.5,8.4,5.2,10,10c1.3,3.9,3.5,7.4,6.5,10.2c4.4,4.1,10.2,6.3,16.2,6.3c4,0,7.9-0.9,11.4-2.8l20.9,20.9l-194.1,194
	c-4.8,4.8-7.5,11.3-7.5,18.1l0,0C357.1,386,368.6,397.5,382.7,397.5z M724.6,166.9c2,1.2,4.1,2.2,6.3,2.9c1.9,0.6,3.7,1.7,5.1,3.2
	c4.3,4.9,4,12.3-0.6,16.8l-68,68c-4.6,4.6-12,4.9-16.8,0.6c-1.5-1.4-2.6-3.1-3.2-5.1c-0.7-2.2-1.7-4.3-2.9-6.2L724.6,166.9z
	 M693,147.7c2.4-2.4,5.6-3.7,8.9-3.7c2.9,0,5.8,1.1,8,3.1c1.5,1.4,2.6,3.1,3.2,5c0.7,2.2,1.7,4.3,3,6.3l-80.3,80.3
	c-2-1.2-4.1-2.2-6.3-2.9c-1.9-0.6-3.7-1.7-5.1-3.2c-4.3-4.9-4-12.3,0.6-16.8L693,147.7z M503.7,106.6c-1.9-1.2-4-2.2-6.2-2.9
	c-1.9-0.6-3.7-1.7-5.1-3.2c-4.3-4.9-4-12.3,0.6-16.8l68-68c2.4-2.4,5.6-3.7,8.9-3.7c2.9,0,5.8,1.1,8,3.1c1.5,1.4,2.6,3.1,3.2,5.1
	c0.7,2.2,1.7,4.3,2.9,6.3L503.7,106.6z M535.2,125.9c-4.6,4.7-12,4.9-16.8,0.6c-1.5-1.4-2.6-3.1-3.2-5c-0.7-2.2-1.7-4.3-2.9-6.2
	l80.3-80.3c2,1.2,4.1,2.2,6.3,2.9c1.9,0.6,3.7,1.7,5,3.2c4.3,4.9,4,12.3-0.6,16.8L535.2,125.9z M547.1,131.1l61.4-61.4l72.7,72.7
	l-30.7,30.7l-30.6,30.7L547.1,131.1z M373.2,362.3l194-194l19.1,19.1l-194,194.1c-5.1,5.4-13.7,5.6-19.1,0.5
	c-5.4-5.1-5.6-13.7-0.5-19.1C372.8,362.7,373,362.5,373.2,362.3L373.2,362.3z"/>
<rect x="555.4" y="398.3" fill="none" width="208.9" height="13.7"/>
<polygon fill="#33BEED" points="561.6,386.2 555.4,398.3 764.3,398.3 758.1,386.2 "/>
<polygon fill="none" points="561.6,386.2 555.4,398.3 555.4,412 764.3,412 764.3,398.3 758.1,386.2 "/>
<rect x="581.3" y="347.8" fill="none" width="157.2" height="4.7"/>
<path fill="none" d="M571.8,0c5.3,0.4,10.4,2.6,14.3,6.2c3,2.8,5.2,6.3,6.5,10.2c1.5,4.7,5.2,8.4,10,10c3.9,1.3,7.4,3.5,10.2,6.5
	c6.8,7.6,8.2,18.6,3.5,27.6l74.4,74.4c11.6-6.3,26.1-1.9,32.3,9.7c0.7,1.3,1.3,2.6,1.7,4c1.5,4.7,5.2,8.4,10,10
	c3.9,1.3,7.4,3.5,10.2,6.5c8.7,9.3,8.3,24.4-0.9,33.6l-68,68c-4.6,4.6-10.9,7.2-17.4,7.2c-6,0-11.8-2.2-16.2-6.3
	c-3-2.8-5.2-6.3-6.5-10.2c-1.5-4.7-5.2-8.4-10-10c-12.6-4.1-19.4-17.5-15.4-30.1c0.4-1.4,1-2.7,1.7-4L594.9,196L400.8,390
	c-10,10-26.2,10-36.2,0c-4.8-4.8-7.5-11.3-7.5-18.1v53.3h419.7V0H571.8z M770.3,424.1H549.4c-3.3,0-6-2.7-6-6l0,0v-25.8
	c0-1.3,0.4-2.6,1.2-3.7l24.6-32.1v-14.7c0-3.3,2.7-6,6-6h0h169.3c3.3,0,6,2.7,6,6l0,0v14.7l24.6,32.1c0.8,1.1,1.2,2.3,1.2,3.7V418
	C776.4,421.4,773.7,424.1,770.3,424.1z"/>
<polygon fill="none" points="741.5,364.6 578.2,364.6 561.6,386.2 758.1,386.2 "/>
<polygon fill="#33BEED" points="738.5,352.5 581.3,352.5 578.2,364.6 741.5,364.6 "/>
<path fill="#284566" d="M775.1,388.6l-24.6-32.1v-14.7c0-3.3-2.7-6-6-6l0,0H575.3c-3.3,0-6,2.7-6,6l0,0v14.7l-24.6,32.1
	c-0.8,1.1-1.2,2.3-1.2,3.7V418c0,3.3,2.7,6,6,6h0h220.9c3.3,0,6-2.7,6-6l0,0v-25.8C776.4,390.9,776,389.7,775.1,388.6z M764.3,412
	H555.4v-13.7l6.2-12.1l16.6-21.7l3.1-12.1v-4.7h157.1v4.7l3.1,12.1l16.6,21.7l6.2,12.1L764.3,412z"/>
</svg>
